<svg xmlns="http://www.w3.org/2000/svg" width="508" height="246" fill="none" viewBox="0 0 508 246">
  <path fill="#FB4E2B" d="M24.179 201.356c-8.44 0-16.424-1.139-23.723-4.328L0 193.611c6.843 3.189 16.195 5.011 23.95 5.011 49.727 0 87.819-41 134.58-88.833l20.073-20.5h-29.197l2.053-2.278h29.425l78.467-79.95H263c7.756 0 13.23-2.05 15.967-5.239h3.422l-74.133 117.306c-16.651 26.878-21.441 32.8-21.441 40.544 0 5.239 3.193 7.289 7.983 7.289 12.774 0 23.038-12.528 38.093-34.85l4.334-6.378c.912-.683 1.825-.683 2.281 0l-4.334 6.378c-15.283 22.322-26.232 36.9-40.602 36.9-11.177 0-13.914-10.933-13.914-17.539 0-11.844 4.79-26.194 23.266-54.21l5.246-7.973h-27.144l-21.897 22.322c-47.673 48.517-86.679 89.745-135.948 89.745ZM184.305 87.011h26.46l50.867-77.217h-1.825l-75.502 77.217Z"/>
  <path fill="#FB4E2B" d="M292.919 169.011c-8.668 0-10.949-8.2-10.949-15.261 0-9.567 4.334-19.361 13.914-31.889l7.527-9.794c6.843-8.884 10.037-14.35 10.037-18.223 0-2.505-1.141-4.1-4.562-4.1-11.405 0-28.285 17.084-47.445 45.328l-1.141 1.822-19.388 29.839h-15.967l33.074-52.161c5.019-7.744 7.984-13.211 7.984-17.31 0-3.873-1.597-5.923-7.527-5.923h-9.353a4.412 4.412 0 0 1 1.141-2.05h9.124c7.071 0 10.265 3.189 10.265 11.617v16.855h1.596c14.827-19.133 28.057-30.522 38.321-30.522 6.843 0 9.352 5.694 9.352 14.35 0 8.655-2.509 15.489-11.633 27.561l-7.071 9.339c-9.808 12.983-13.23 18.678-13.23 23.005 0 3.645 2.281 5.695 6.159 5.695 10.949 0 20.301-13.439 33.075-32.345l6.158-9.111c.913-.683 1.825-.683 2.281 0l-6.159 9.111c-11.633 17.312-23.038 34.167-35.583 34.167Z"/>
  <path fill="#FB4E2B" d="M383.701 168.328c-8.44 0-11.861-6.606-11.861-17.767 0-4.328.456-8.883 1.825-13.439h-1.369c-14.598 21.639-24.635 32.117-33.303 32.117-8.211 0-12.773-9.795-12.773-20.5 0-10.478 4.334-21.411 10.036-30.295 12.089-18.905 31.934-31.205 53.376-31.205 4.106 0 7.299.228 11.177 1.139l47.673-75.85h-38.321l1.368-2.278h34.9c10.036 0 17.564-2.506 23.266-10.25h2.965l-76.87 122.544c-11.176 17.995-18.704 29.384-18.704 36.9 0 4.328 1.597 7.062 6.615 7.062 10.721 0 21.213-12.3 32.847-29.612l7.527-11.161c.912-.455 1.825-.455 2.281 0l-7.984 11.845c-11.405 16.855-22.353 30.75-34.671 30.75Zm-50.182-8.2c0 4.328 2.281 7.061 5.931 7.061 7.299 0 17.563-10.478 32.39-33.483l15.967-24.828 11.177-17.767c-2.281-1.367-5.246-2.05-9.352-2.05-15.055 0-25.776 11.845-39.006 31.661-10.036 14.806-17.107 30.067-17.107 39.406Z"/>
  <path fill="#FB4E2B" d="M380.72 246c-8.212 0-11.177-4.556-11.177-10.933 0-13.667 13.686-34.395 50.41-54.211l21.898-11.845 18.02-29.383h-.913c-10.264 14.805-23.038 27.105-32.618 27.105-6.159 0-10.493-5.239-10.493-15.944 0-11.617 5.247-22.778 17.336-40.545l11.861-17.538-.684-1.367h-9.808c-.229-.683.228-1.595 1.14-2.05h25.547l.457 2.505-19.617 28.7c-15.967 23.462-21.442 31.662-21.442 38.267 0 3.872 2.053 5.922 6.159 5.922 12.318 0 26.916-19.361 40.83-41.683l18.933-30.294-.685-1.367h-8.668c0-.683.228-1.367 1.141-2.05h24.863l.456 2.505-25.775 40.545-20.073 32.344c20.757-9.794 32.162-15.261 47.901-38.95.912-.683 1.825-.683 2.281 0-15.511 24.828-28.969 30.978-51.551 41.456l-5.474 8.655C435.92 200.217 406.495 246 380.72 246Zm-8.668-11.389c-.228 5.239 1.825 9.339 7.299 9.339 13.23 0 31.022-23.461 60.903-72.206l-19.389 10.478c-36.039 19.361-48.357 40.317-48.813 52.389Z"/>
</svg>
