<svg xmlns="http://www.w3.org/2000/svg" width="909" height="444" fill="none" viewBox="0 0 909 444">
  <path fill="#FCE3D3" d="m909 362-.12.05-.12-.04c.01-8.29.03-16.59.04-24.88 0-1.49-.04-2.98-.06-4.48.09-.05.17-.05.26.01V362Z"/>
  <path fill="#040404" d="M908.74 332.66c.02 1.49.06 2.98.06 4.48 0 8.29-.03 16.59-.04 24.88-.55.01-1.11.04-1.66.04h-71c-1.26 0-1.89-.657-1.89-1.97v-25.2c-.66.29-.72.76-.89 1.12-4.19 8.67-9.74 16.28-17.33 22.29-7.79 6.17-16.64 9.89-26.44 11.41-8.55 1.33-17.04 1.11-25.45-1.04-.88-.23-1.75-.19-2.64-.18-7.66.05-15.17-.84-22.42-3.46-8.77-3.17-15.91-8.48-21.31-16.11-.19-.27-.38-.55-.58-.81-.06-.09-.17-.14-.34-.27-.99.92-1.99 1.87-3 2.79-5.96 5.46-12.3 10.39-19.5 14.13-6.38 3.32-13.09 5.5-20.33 5.74-8 .26-15.31-1.58-21.37-7.13-.63-.58-1.08-1.44-2.17-1.34-.35.03-.4-.32-.37-.61.06-.59-.17-1.05-.52-1.52-3.64-4.88-5.52-10.47-6.53-16.38-1.35-7.89-1.15-15.81-.46-23.75.93-10.58 3.41-20.78 7.17-30.69.35-.93.31-1.85.32-2.78.02-1.17-.05-2.34.02-3.5.06-.96-.44-1.05-1.2-1.09-3.94-.2-7.85-.67-11.74-1.31-6.21-1.02-12.26-2.61-18.03-5.16-.3-.13-.57-.36-1.08-.15v85.37c-.02 1.77.23 1.6-1.59 1.61h-33.17c-.22 0-.45-.02-.67 0-.78.1-.96-.31-.9-.99.03-.39 0-.78 0-1.17v-72.6c-.68.47-.88.99-1.16 1.43-5.92 9.13-11.83 18.26-17.76 27.39-.47.72-.72 1.44-.71 2.32.02 8.17.2 16.33 1 24.46.55 5.64 1.43 11.23 2.33 16.82.04.22.09.44.11.66.18 1.65.15 1.68-1.49 1.69-9.83 0-19.67.02-29.5-.03-1.14 0-1.86.31-2.39 1.31-.52.98-1.23 1.85-1.78 2.81-.41.73-.94 1.04-1.75.9-.11-.02-.22 0-.33 0h-40.67c-.48 0-.97.11-1.56-.18.95-1.52 1.87-3.01 2.77-4.45-.3-.56-.74-.36-1.09-.36-9.5-.01-19 0-28.5-.03-.9 0-1.59.31-2.3.77-6.21 4.01-12.86 7-20.17 8.35-6.69 1.24-13.36 1.35-19.92-.83-6.57-2.18-11.65-6.32-15.46-12.06-3.56-5.36-5.57-11.32-6.71-17.6-1.22-6.73-1.11-13.47-.44-20.25.88-8.88 2.91-17.5 5.8-25.92.63-1.82.66-3.55.26-5.35-.49-.24-1-.13-1.49-.13h-24.17c-.28 0-.56.02-.83 0-.57-.04-.78.22-.81.77-.06 1.11-.19 2.21-.27 3.32-.76 10.02-1.53 20.04-2.29 30.07-.5 6.59-.97 13.18-1.47 19.77-.45 5.98-.91 11.96-1.34 17.94-.05.76-.17 1.2-1.12 1.2-11.61-.03-23.22-.03-34.83-.04-.1 0-.2-.08-.47-.19 3.61-33.26 7.23-66.56 10.85-99.9-.69 0-.9.53-1.23.86-10.51 10.62-21 21.26-31.52 31.87-.82.83-1.25 1.66-1.36 2.87-.66 7.63-1.44 15.26-2.16 22.88-.61 6.47-1.19 12.94-1.8 19.41-.66 7.08-1.35 14.15-1.98 21.23-.07.83-.39 1.02-1.13 1-1.44-.04-2.89-.01-4.33-.01h-39.67c-.33 0-.67-.03-1 0-.79.1-1.08-.25-1.12-1.02-.09-1.94-.25-3.88-.38-5.82-.16-2.36-.31-4.73-.47-7.23-.74.21-1.1.72-1.53 1.1-14.23 12.68-28.84 24.89-44.17 36.23-15.11 11.17-30.8 21.41-47.47 30.14-18.02 9.43-36.79 16.85-56.65 21.39-8.88 2.03-17.86 3.45-26.95 4.22-9.98.85-19.97.96-29.96.23-13.82-1-27.23-3.82-39.96-9.47-1.03-.46-1.47-1.01-1.6-2.17-.53-4.58-1.2-9.13-1.82-13.7-.06-.43-.19-.87-.03-1.32.61-.09 1.06.29 1.55.53 8.78 4.38 17.96 7.61 27.56 9.65 10.75 2.29 21.59 3.31 32.59 3 28.93-.83 56.17-8.3 82.19-20.68 20.18-9.6 38.86-21.64 56.7-35.04 3.82-2.87 7.57-5.83 11.34-8.76.42-.32.79-.69 1.48-1.29h-41.48c-.39 0-.78-.03-1.17 0-.63.06-.85-.19-.91-.84-.27-3.1-.6-6.19-.9-9.28-.76-7.96-1.52-15.92-2.26-23.88-.61-6.47-1.19-12.94-1.8-19.41-.61-6.47-1.24-12.93-1.86-19.4-.48-5.09-.95-10.17-1.43-15.26-.63-6.69-1.27-13.38-1.9-20.06-.49-5.25-.97-10.5-1.47-15.76-.62-6.52-1.25-13.04-1.87-19.57-.49-5.2-.96-10.39-1.45-15.59-.62-6.58-1.25-13.15-1.87-19.73-.49-5.2-.97-10.39-1.46-15.59-.62-6.58-1.25-13.15-1.87-19.73-.49-5.2-.97-10.39-1.46-15.59-.62-6.58-1.25-13.16-1.87-19.73-.49-5.2-.97-10.39-1.46-15.59-.63-6.63-1.27-13.26-1.89-19.9-.44-4.64-.85-9.29-1.27-13.9.31-.43.73-.29 1.1-.29h33.83c1.33 0 1.36.01 1.45 1.35.27 4.05.5 8.09.75 12.14.64 10.42 1.3 20.84 1.93 31.26.38 6.26.74 12.53 1.13 18.79.5 8.09 1.02 16.18 1.53 24.28.38 6.15.74 12.31 1.12 18.46.51 8.26 1.04 16.52 1.55 24.78.37 5.93.72 11.86 1.09 17.79.53 8.54 1.07 17.07 1.59 25.61.38 6.21.73 12.42 1.12 18.63.5 8.15 1.03 16.3 1.53 24.44.16 2.66.29 5.33.37 7.99.25 8.49.47 16.99.71 25.49 0 .28.02.56.01.83-.02.65.4.67.88.68.51 0 .83-.08.85-.71.05-1.67.17-3.33.24-4.99.36-8.55.62-17.1 1.09-25.64.37-6.71 1-13.4 1.5-20.1.38-5.04.74-10.08 1.12-15.12.51-6.81 1.04-13.62 1.55-20.43l1.44-19.27c.52-6.92 1.05-13.84 1.57-20.76.48-6.37.95-12.74 1.42-19.11.52-6.92 1.05-13.84 1.57-20.76.48-6.37.95-12.74 1.43-19.11.52-6.98 1.06-13.95 1.58-20.93.49-6.53.96-13.07 1.45-19.61.51-6.76 1.03-13.51 1.55-20.27.12-1.61.28-3.21.35-4.82.03-.73.31-.98 1-.91.27.03.55 0 .83 0h40c.28 0 .56.03.83 0 .79-.1 1.04.24 1.09 1.03.31 4.54.67 9.08 1.02 13.62.51 6.53 1.03 13.07 1.53 19.6.38 4.87.74 9.75 1.11 14.62.51 6.64 1.04 13.29 1.55 19.93.38 4.93.74 9.86 1.12 14.78.51 6.59 1.03 13.18 1.54 19.76.38 4.87.74 9.75 1.12 14.62l1.56 20.1c.38 4.93.74 9.86 1.12 14.78.51 6.59 1.03 13.18 1.54 19.76.37 4.82.73 9.63 1.1 14.45.52 6.75 1.08 13.51 1.56 20.26.51 7.15 1.16 14.28 1.49 21.44.22 4.94.56 9.87.85 14.8.01.22.07.43.15.9.73-.72 1.33-1.35 1.97-1.94.43-.4.34-.91.36-1.39.19-6.11.3-12.22.58-18.32.35-7.71.84-15.42 1.28-23.12.36-6.32.72-12.64 1.09-18.96l1.59-27.28c.37-6.38.72-12.75 1.09-19.13.52-8.98 1.05-17.96 1.57-26.95.37-6.38.72-12.75 1.09-19.13.52-8.98 1.05-17.96 1.57-26.95l1.08-18.8c.53-9.15 1.07-18.3 1.59-27.45.26-4.6.51-9.21.77-13.81.07-1.21.07-1.24 1.18-1.24h34.67c.1 0 .21.05.55.14-3.34 35.3-6.69 70.65-10.02 105.99-3.33 35.31-6.64 70.62-9.96 105.94.59 0 .81-.45 1.1-.75 9.79-10.01 19.56-20.02 29.34-30.04.93-.95 1.82-1.95 2.81-2.84.8-.72 1.13-1.58 1.24-2.61a6354 6354 0 0 1 2.12-19.87c.61-5.63 1.23-11.26 1.87-16.88.23-2.05.26-2.05-1.83-2.05h-24.97c.04-.66.46-.89.74-1.2 3.22-3.6 6.48-7.17 9.67-10.79.66-.75 1.34-.98 2.3-.97 4.72.04 9.44.02 14.17.02 1.56 0 1.53-.01 1.69-1.47.73-6.79 1.49-13.57 2.22-20.36.6-5.57 1.19-11.15 1.79-16.73.61-5.63 1.24-11.26 1.86-16.89.6-5.52 1.19-11.04 1.79-16.56.73-6.73 1.47-13.47 2.2-20.2l1.8-16.72c.5-4.64 1-9.27 1.52-13.91.14-1.24.19-1.25 1.38-1.25h44.17c1.17 0 1.17.02 1.29 1.15 1.2 11.09 2.41 22.19 3.59 33.28 1.06 9.88 2.08 19.77 3.13 29.65 1.1 10.32 2.21 20.64 3.32 30.97.14 1.26.29 2.52.44 3.78.55.22.71-.25.95-.49 10.89-11.1 21.77-22.22 32.69-33.3.71-.72.83-1.46.83-2.38-.02-20.22-.01-40.44-.01-60.67 0-1.327.677-1.99 2.03-1.99 15.78 0 31.55.01 47.33 0 3.79 0 7.55.24 11.29.8.94.14 1.53-.03 2.18-.7 5.69-5.85 11.42-11.67 17.13-17.51 9.83-10.04 19.67-20.08 29.48-30.14.6-.61 1.2-.83 2.04-.83 5 0 10 .16 14.99-.26 5.84-.5 11.54-1.56 16.91-4.03 3.17-1.45 5.99-3.37 8.24-6.08.38-.46.7-.94 1.46-.93 5.16.03 10.31.02 15.79.02-12.57 19.93-25.02 39.65-37.59 59.58.73.03 1.25.08 1.77.08h27.67c.39 0 .78.03 1.17 0 .63-.05.92.19.87.85-.04.44 0 .89 0 1.33v130.66c0 2.17 0 2.05 2.21 2.21 1.96.15 3.45-.49 4.99-1.65 5.43-4.09 11.46-6.96 18.19-8.21 1.86-.34 3.73-.61 5.63-.54.83.03 1.1-.27 1.02-1.05-.04-.38 0-.78 0-1.17V65.03c0-2.43-.38-2.1 2.11-2.1 10.72-.01 21.44 0 32.17 0 .39 0 .78.03 1.17 0 .62-.05.94.15.88.83-.04.44 0 .89 0 1.33v158.82c.6.12.66-.39.84-.67 6.38-9.75 12.74-19.52 19.13-29.28.42-.64.56-1.28.56-2.03-.01-11.61 0-23.22-.01-34.83 0-1.37-.02-1.39-1.35-1.39-2.44-.01-4.89 0-7.33 0-.18-.58.28-.84.52-1.15 2.41-3.12 4.8-6.26 7.27-9.33.67-.84.91-1.68.91-2.73 0-9.89-.08-19.78.09-29.66.16-9.05 1.63-17.9 5-26.36 6.18-15.47 17.49-24.98 33.74-28.45 10.68-2.28 21.41-2.19 32.03.52 14.64 3.74 24.7 12.78 30.5 26.66.44 1.053 1.23 1.58 2.37 1.58 2 0 4-.01 6 0 .48 0 1-.14 1.48.17 0 .53-.38.89-.63 1.29-1.65 2.63-3.3 5.27-5.01 7.87-.46.71-.6 1.38-.44 2.19 1.23 6.23 1.66 12.54 1.65 18.89-.02 8.11 0 16.22 0 24.33v1.17c0 .41.2.61.6.61h18c2.07 0 1.9.29 1.9-1.83v-76.5c0-.39.02-.78 0-1.17-.03-.6.14-.96.83-.88.33.04.67 0 1 0h32.67c.33 0 .67.02 1 0 .56-.04.82.19.8.76-.02.5 0 1 0 1.5v119.16c0 2.72-.24 2.18 2.17 2.26 7.15.23 14.11 1.48 20.88 3.81.15.05.29.16.61.34-4.76 8.57-9.51 17.13-14.35 25.85-3.04-2.24-6.02-4.43-9.11-6.71-.31.67-.19 1.28-.19 1.84v118.83c0 2.37-.22 2.01 2.06 2.01 11.44.01 22.89 0 34.33 0 .61 0 1.23.02 1.84.03l-.02.05ZM552.92 45.88c-.42.48-.97.84-1.27 1.43-.2.18-.42.35-.61.54-6.36 6.5-12.72 13.01-19.08 19.52-.18.18-.48.32-.38.72 1.39.73 2.81 1.46 4.22 2.21 1.07.56 1.08.57 1.77-.48 3.38-5.14 6.77-10.28 10.13-15.43 1.45-2.23 3.03-4.37 4.31-6.7.44-.55 1.17-.96.88-1.84.03.14.1.22.2.16.06-.03.08-.13.12-.2-.1.03-.2.05-.3.08l.01-.01ZM405.68 191.05c.61-.65.93-1.01 1.27-1.36 4.69-4.81 9.39-9.62 14.09-14.43 12.22-12.52 24.45-25.04 36.67-37.56l32.13-32.91c12.11-12.4 24.21-24.8 36.32-37.2 9.93-10.18 19.86-20.35 29.8-30.53 3.77-3.86 7.53-7.72 11.31-11.57.38-.39.7-.97 1.28-1 1.12-.05 2.27-.16 3.55.11-10.68 16.24-21.26 32.32-31.89 48.49 9.17 6.7 14.85 15.74 18.35 26.64l58.33-92.44h-6.92c-.53 0-.76.37-1.07.69-2.13 2.23-4.62 3.97-7.37 5.36-6.2 3.13-12.87 4.41-19.72 4.98-4.44.37-8.88.28-13.32.26-.82 0-1.43.18-2.05.81a70768.4 70768.4 0 0 1-54.21 55.37c-17.8 18.17-35.61 36.34-53.42 54.51-19.75 20.15-39.52 40.29-59.25 60.46-.93.95-1.82 1.35-3.16 1.34-20-.04-40-.02-60-.05-1.08 0-1.89.21-2.57 1.11-.77 1.01-1.7 1.91-2.53 2.87-.22.26-.7.45-.37 1.08h62.01c-.1.48-.38.68-.61.91-6.17 6.32-12.35 12.63-18.52 18.95-14.48 14.82-28.97 29.63-43.44 44.46-15.32 15.7-30.68 31.38-46.34 46.75-15.3 15.02-30.89 29.74-47.13 43.76-16.75 14.45-34.11 28.11-52.69 40.17-16.24 10.55-33.19 19.72-51.26 26.75-19.85 7.73-40.36 12.47-61.64 13.74-10.84.65-21.64.31-32.38-1.53-10.04-1.72-19.83-4.3-29.19-8.4-.32-.14-.63-.49-1.11-.17.06 1.91.56 3.81.67 5.74.05.91.42 1.39 1.24 1.71 2.48.97 4.96 1.94 7.48 2.78 10.93 3.64 22.21 5.35 33.68 5.87 13.35.61 26.65-.12 39.84-2.33 14.49-2.43 28.55-6.44 42.22-11.83 18.98-7.47 36.73-17.27 53.73-28.49 17.17-11.34 33.36-23.99 49.01-37.33 20.64-17.59 40.26-36.29 59.54-55.35 18.61-18.4 36.88-37.12 55.19-55.81 16.13-16.47 32.27-32.93 48.38-49.42.78-.8 1.56-1.05 2.62-1.05 18.33.02 36.66.02 55 .02h1.84c-.44.72-.73 1.23-1.06 1.72-8.85 13.51-17.8 26.96-26.21 40.76-1.63 2.68-2.8 5.23-1.86 8.37.03.1.02.22.03.33.71 6.74 1.41 13.47 2.13 20.21.75 7.01 1.5 14.02 2.26 21.03.24 2.24.5 4.47.77 6.91.65-.5.88-1.06 1.19-1.55 7.21-11.53 14.38-23.09 21.63-34.59 22.29-35.36 44.6-70.7 66.92-106.04.51-.81.88-1.59.87-2.61-.04-11-.02-22-.02-33 0-3.4-.3-6.77-1.06-10.08-.53-2.29-1.2-4.54-2.5-6.56-.62.37-.83.92-1.13 1.37-3 4.54-5.99 9.08-8.98 13.63-16.17 24.58-32.34 49.16-48.47 73.77-.69 1.06-1.4 1.44-2.67 1.44-17.72-.05-35.44-.03-53.16-.03h-2.06l-.01-.01Zm280.69 95.52c.75-.52.97-1.11 1.28-1.61 27.93-43.93 55.87-87.86 83.76-131.82.69-1.08 1.41-1.43 2.66-1.43 16.94.04 33.88 0 50.82.07 1.5 0 2.52-.39 3.27-1.66.54-.92 1.47-1.59 1.87-2.82H775.3c11.98-18.89 23.82-37.54 35.74-56.33-1.69-.25-3.14-.06-4.57-.16-.85-.06-1.43.22-1.99.89-4.04 4.79-9.14 8-15.05 10.01-6.12 2.08-12.45 2.72-18.85 2.85-1.24.02-1.98.35-2.66 1.43-3.57 5.69-7.24 11.31-10.88 16.96-4.95 7.7-9.92 15.39-14.84 23.12-.61.96-1.27 1.36-2.4 1.29-1.6-.1-3.22-.02-4.83-.02h-24.16c-.53 0-1.16-.24-1.57.26-1.03 1.27-2.01 2.57-3.01 3.85.44.37.79.27 1.1.27h7.83c5 0 10 .03 15-.02 1.05-.01 1.6.3 1.97 1.29.48 1.3 1.06 2.57 1.75 3.77.59 1.03.37 1.77-.24 2.71-15.4 23.55-30.77 47.13-46.18 70.68-.8 1.22-1.13 2.42-1.12 3.87.04 16.83.03 33.66.03 50.49v2.06Zm-28.55 75.48c.13.54.46.66.72.82 1.41.89 2.91 1.61 4.49 2.14 5.46 1.85 11.01 1.87 16.61.79 6.47-1.24 12.32-4 17.84-7.51 7.6-4.82 14.2-10.83 20.4-17.31 6.65-6.95 12.69-14.42 18.47-22.1.37-.5.64-1.11 1.35-1.48-.04.52-.04.91-.1 1.29-.82 5.36-.87 10.73.04 16.09 2.4 14.19 10.23 23.97 23.83 28.87 8.98 3.23 18.25 3.56 27.6 2.06 15.18-2.43 27.04-10.13 35.68-22.81 5.35-7.85 8.67-16.58 10.91-25.75 1.76-7.19 2.75-14.5 3.22-21.88.36-5.54.58-11.1.31-16.65-.38-7.77-.8-15.53-1.2-23.29-.28-5.43-.61-10.87-.86-16.3-.28-6.21-.85-12.42-.47-18.64.28-4.51.95-8.94 2.86-13.09 2.05-4.45 5.31-7.47 10.21-8.49 2.59-.53 5.19-.45 7.78.04 4.11.79 7.76 2.62 11.24 4.84 2.91 1.85 5.62 3.97 8.39 6.01.43.32.8.76 1.47.86 3.21-5.79 6.43-11.59 9.65-17.38-.5-.34-.93-.44-1.37-.55-7.62-1.87-15.33-2.51-23.13-1.69-9.54 1.01-17.81 4.82-24.83 11.35-4.6 4.29-8.23 9.31-11.15 14.85-4.71 8.93-7.28 18.55-9.12 28.4-1.78 9.5-2.79 19.11-3.93 28.69-1.14 9.59-2.47 19.15-4.41 28.62-1.92 9.36-4.32 18.58-7.94 27.45-2.74 6.71-6.07 13.09-10.91 18.57-5.26 5.97-11.66 9.87-19.72 10.63-5.67.53-11.08-.35-16.06-3.22-5.75-3.31-9.49-8.33-11.67-14.47-4.06-11.43-3.28-22.79.89-34.04.77-2.07 1.99-3.81 3.52-5.38 8.51-8.74 17.77-16.61 27.54-23.88 1.87-1.39 2.73-3.21 3.56-5.04-.13-.36-.32-.33-.47-.33-6.5 0-13 0-19.5-.02-.71 0-1.12.26-1.48.83-.89 1.41-1.82 2.79-2.73 4.18-4.71 7.27-9.31 14.64-12.49 22.72-1.73 4.41-4.11 8.32-6.96 12.02-.31.4-.59.8-.89 1.21-7.74 10.39-15.92 20.41-25.38 29.31-5.68 5.35-11.73 10.22-18.66 13.87-5.51 2.91-11.29 4.89-17.63 4.83-4.67-.04-9.33-.02-14-.03h-1.52v-.01Zm-436.71-3.25c.5-.07.75-.47 1.08-.73 10.02-8.19 19.71-16.76 29.31-25.44.9-.82 1.28-1.6 1.19-2.85-.52-6.7-.94-13.4-1.39-20.11-.35-5.21-.71-10.41-1.07-15.62-.52-7.64-1.05-15.29-1.58-22.93-.37-5.37-.72-10.75-1.09-16.12-.51-7.48-1.04-14.95-1.55-22.43-.38-5.48-.72-10.97-1.1-16.45-.61-8.92-1.25-17.83-1.86-26.75-.5-7.26-.93-14.52-1.46-21.77-.9-12.29-1.66-24.6-2.28-36.91-.18-3.6-.43-7.21-.6-10.81-.03-.73-.31-.91-1-.93-.77-.03-.78.41-.8.94-.01.39-.06.78-.08 1.16-.29 7.21-.57 14.43-.87 21.64-.11 2.77-.21 5.55-.4 8.32-.38 5.71-.81 11.41-1.21 17.11-.38 5.37-.74 10.75-1.12 16.12-.51 7.2-1.03 14.4-1.54 21.6-.38 5.37-.73 10.75-1.11 16.12-.52 7.37-1.05 14.73-1.57 22.1l-1.11 15.95c-.51 7.25-1.04 14.51-1.55 21.76-.37 5.32-.73 10.64-1.1 15.95-.52 7.37-1.05 14.73-1.57 22.1-.38 5.32-.74 10.63-1.12 15.95-.51 7.25-1.03 14.51-1.53 21.76-.03.41-.19.86.1 1.28l-.02-.01Zm443.95-167.12c-6.14 0-12.02-.02-17.91.02-1.1 0-2.21.24-3.29.45-6.57 1.28-12.39 4.22-17.55 8.38-11.43 9.22-18.98 20.98-22.71 35.19-.24.91-.49 1.79-1.02 2.61-3.8 5.94-7.56 11.9-11.35 17.84-.33.51-.51 1.43-1.39 1.15-.8-.26-.38-1.07-.38-1.6-.03-10.72-.02-21.44-.03-32.16 0-2.28 0-4.56-.12-6.83-.18-3.34-.75-6.62-1.98-9.75-1.9-4.84-5.3-8.11-10.29-9.69-2.35-.74-4.76-1.2-7.2-1.23-7.11-.08-14.22-.05-21.33-.07-.38 0-.78-.06-1.08.29-1.01 1.16-1.82 2.42-2.07 4.1h1.81c6.11 0 12.22-.02 18.33.01 3.11.02 6.21.24 9.2 1.27 3.91 1.34 6.04 4.1 6.67 8.15.55 3.54.11 6.97-.87 10.36-1.59 5.47-4.2 10.5-6.96 15.44-3.68 6.6-7.85 12.89-11.91 19.26-.55.86-.74 1.66-.57 2.65.68 3.89.99 7.82.99 11.77.01 12.83.01 25.66.03 38.5 0 .5-.18 1.04.24 1.66.3-.45.51-.76.72-1.09 3.77-5.82 7.53-11.66 11.31-17.47 8.89-13.68 17.59-27.49 26.71-41.03.32-.48.54-1.08 1.19-1.4 1.05 9.16 5.87 15.72 13.46 20.44 2.7 1.68 5.57 3 8.54 4.09 7.41 2.71 15.13 3.91 22.94 4.61.88.08 2.03.39 2.58-.03.69-.53.19-1.76.27-2.68.04-.44 0-.89 0-1.33.02-.53-.18-.84-.75-.84-.44 0-.89-.03-1.33-.06-6.49-.48-12.92-1.28-19.21-3.03-4.79-1.33-9.36-3.15-13.34-6.22-4.78-3.7-7.54-8.57-8.07-14.57-.89-10.08 1.34-19.4 7.11-27.81.7-1.02 1.37-1.47 2.66-1.46 9.78.07 19.55.02 29.33.06 1.08 0 1.68-.31 2.24-1.24 4.61-7.59 9.27-15.15 13.92-22.72.78-1.27 1.55-2.54 2.44-4l.02.01Zm78.24 98.19c.44.04.46-.25.55-.4 3.55-6.55 7.61-12.77 11.7-18.98.66-1 1.32-1.4 2.53-1.39 5.77.07 11.55.03 17.33.03 1.313 0 1.97-.633 1.97-1.9V157.6c0-.44 0-.89-.01-1.33-.01-.31-.18-.46-.51-.53-1.5-.31-2.32.03-3.16 1.35-9.89 15.54-19.77 31.09-29.68 46.62-.57.89-.79 1.77-.79 2.8.02 27.27.01 54.54.02 81.8 0 .52.04 1.05.07 1.55l-.02.01Zm-161.76-95.09c.33-2.61.22-122.49-.11-123.67-.08.09-.16.16-.21.25-6.94 10.98-13.87 21.96-20.82 32.93-.36.57-.38 1.09-.24 1.73 1.29 6.05 1.9 12.17 1.9 18.35v47.16c0 6.47-.78 12.85-2.42 19.11-.11.4-.43.79-.07 1.42 3.62 0 7.35-.12 11.06.03 3.78.16 7.44 1.01 10.91 2.67v.02Zm-55.78 75.32c-.1-4.76.19-9.53-.28-14.3-.34-3.5-.99-6.91-2.43-10.15-2.02-4.53-5.4-7.52-10.14-8.96-2.35-.71-4.76-1.06-7.22-1.07-4.28-.01-8.55-.01-12.83-.03-1.36 0-1.25-.04-1.25 1.27 0 23.33 0 46.66.01 69.98 0 .32-.26.78.31.96.26-.37.53-.73.78-1.09 7.94-11.11 15.47-22.5 23.17-33.78 1.74-2.54 5-3.88 7.99-3.29.59.12 1.11.52 1.87.43l.02.03Zm181.14-7.35c-.61-.08-.64.37-.79.61-6.4 10.07-12.77 20.15-19.18 30.21-.49.76-.56 1.52-.56 2.36v58.96c.85-.14 1.41-.51 1.99-.81 8.5-4.37 15.57-10.58 22.28-17.26.55-.55.47-1.04.27-1.65-2.84-8.51-3.96-17.28-3.98-26.21-.04-14.88-.02-29.76-.03-44.64v-1.57Zm106.79-13.55c.06 0 .11.02.17.03.16-.74.34-1.48.47-2.22 1.11-6.34 2.5-12.61 4.49-18.74 3.17-9.76 7.76-18.74 14.82-26.3.58-.62.56-1.28.56-1.99v-49.3c0-.41.17-.88-.16-1.25-.43 0-.53.37-.72.61-1.17 1.48-2.39 2.93-3.45 4.48-.68.99-1.47 1.28-2.63 1.26-3.83-.07-7.66-.04-11.49-.02-2.33 0-2.03-.29-2.03 2.03v91.42l-.03-.01Zm-36.35 33.54c-.55-.04-.75.27-1 .46-8.94 6.87-17.5 14.19-25.35 22.3a10.53 10.53 0 0 0-2.26 3.45c-2.41 6-3.39 12.26-3.33 18.71 0 .38.01.79.14 1.15 1.55 4.25 4.09 7.62 8.51 9.19 3.66 1.3 7.39 1.32 11.15.44 3.72-.87 6.48-3.03 8.41-6.29.91-1.53 1.57-3.18 2.06-4.89 1.23-4.3 1.68-8.71 1.69-13.16.03-10.21.02-20.42.02-30.64 0-.22-.02-.44-.04-.72Zm-127.29-34.62V228.8c0-1.3-.02-1.32-1.23-1.32h-29.49c-1.29 0-1.32.02-1.32 1.24 0 10.22 0 20.43-.02 30.65 0 .77.26 1.23.87 1.63a33.1 33.1 0 0 0 6.66 3.38c7.41 2.75 15.16 3.74 22.98 4.3 1.69.12 1.54.28 1.54-1.4v-19.16h.01ZM441.73 356.88c.81-.02 1.43-.42 2.08-.7 3.68-1.6 7.06-3.72 10.34-6.02.9-.63 1.15-1.3 1.15-2.34-.03-25-.02-50-.03-75 0-.4.13-.85-.16-1.24-.15.11-.26.16-.32.24-6.16 9.83-12.31 19.66-18.48 29.48-.35.56-.42 1.11-.35 1.74.25 2.26.47 4.53.71 6.79.59 5.58 1.18 11.15 1.78 16.73l1.89 17.55c.46 4.25.92 8.49 1.38 12.76l.01.01Zm117.86-106.53c.24-.21.34-.26.4-.35 4.03-6.25 8.05-12.5 11.55-19.07 2.12-3.97 4.05-8.02 5.24-12.38.77-2.82 1.1-5.65.55-8.56-.4-2.13-1.51-3.64-3.59-4.41-1.36-.5-2.76-.8-4.21-.95-4.88-.48-9.77-.13-14.65-.27-.94-.03-1.49.28-2.03 1.05-4.47 6.44-10.47 10.93-17.74 13.79-.63.25-1.71.09-1.67 1.25.04 1.02 1.01.92 1.61 1.15 9.25 3.6 16.08 9.87 20.64 18.66 1.64 3.16 2.86 6.47 3.91 10.07l-.01.02Zm-67.98 107.07.3.09c.12-.17.24-.34.35-.51 10.98-17.34 21.96-34.68 32.96-52.02.41-.65.53-1.3.53-2.04-.01-7.16 0-14.33-.02-21.49 0-.34.23-.78-.31-1.02l-3.09 4.53c-9.73 14.32-19.48 28.63-30.06 42.35-.57.73-.66 1.46-.66 2.31.01 8.83 0 17.66 0 26.49v1.31Zm34.07-45.25c-.09-.02-.18-.04-.27-.05-10.71 16.91-21.41 33.82-32.25 50.94h1.98c10.21 0 20.43-.04 30.64.04 1.44.01 2.27-.45 2.86-1.67.23-.47.36-.9.25-1.42-.15-.76-.25-1.53-.37-2.3-1.36-8.89-2.31-17.82-2.57-26.82-.17-5.77-.25-11.54-.22-17.31 0-.47-.04-.93-.06-1.4l.01-.01ZM393.95 208.59c-5.25 5.35-10.21 10.42-15.21 15.47-.45.45-.52.96-.57 1.51-.18 2.21-.34 4.43-.51 6.64-.41 5.31-.82 10.62-1.22 15.93-.26 3.37-.52 6.75-.75 10.13-.09 1.25-.05 1.27 1.23 1.28h19.65c1.18 0 1.21-.03 1.13-1.2-.25-3.71-.51-7.42-.79-11.12-.77-10.24-1.54-20.47-2.32-30.71-.19-2.53-.42-5.05-.65-7.91l.01-.02Zm61.33-62.37c-.68.25-.91.65-1.21.95-5.28 5.39-10.56 10.79-15.83 16.19-4.77 4.88-9.52 9.78-14.33 14.64-.89.9-1.32 1.73-1.04 3.06.33 1.57.35 3.19.51 4.79.12 1.17.13 1.19 1.28 1.2 9.82 0 19.65 0 29.47.02.8 0 1.31-.14 1.15-1.08-.04-.22 0-.44 0-.67v-39.1Zm321.05-45.96c-.43-2.38-1.12-4.52-2.15-6.56-1.98-3.91-5.12-6.35-9.41-7.24-1.52-.32-3.07-.45-4.63-.44-8.03.05-12.85 3.66-15.17 11.38-1.14 3.8-1.64 7.71-1.66 11.66-.06 8.88-.05 17.76-.06 26.64 0 .28-.19.69.34.81.27-.41.54-.83.8-1.24 7.18-11.14 14.37-22.28 21.51-33.45.59-.92 1.19-1.27 2.26-1.22 2.66.12 5.32-.09 8.17-.33v-.01Zm-365.9 261.8c.28.67.7.85 1.05 1.11 2.93 2.11 6.18 3.48 9.7 4.19 6.06 1.22 12.05.69 17.97-.85 7.87-2.05 14.75-6.03 21.12-10.98 7.72-5.99 14.38-13.06 20.67-20.49 6.97-8.23 13.38-16.88 19.64-25.65 7.9-11.07 15.53-22.33 23.14-33.6.9-1.32.51-2.1-1.08-2.22-.62-.05-1.2.09-1.79.31-1 .38-1.57 1.18-2.14 2.01-7.42 10.93-14.73 21.94-22.4 32.7-7.29 10.22-14.8 20.27-23.28 29.56-5.52 6.05-11.39 11.7-18.15 16.36-5.77 3.97-11.96 7.02-18.9 8.31-5.46 1.02-10.91 1.29-16.28-.57a2.97 2.97 0 0 0-.97-.18c-2.71-.01-5.42 0-8.31 0l.01-.01Zm115.12-202.22c-1.57 1.86-28.72 45.07-29.03 46.23 1.29 0 2.57.01 3.84 0 3.16-.04 6.33.16 9.47-.39 3.93-.69 7.44-2.19 10.18-5.2 1.9-2.09 3.13-4.57 3.97-7.24 1.17-3.74 1.68-7.59 1.71-11.49.05-7.05.02-14.11.02-21.16 0-.25.11-.55-.16-.75Zm-33.94-20.73.31.09 2.91-4.41c7.96-12.1 15.91-24.2 23.87-36.29.85-1.29.94-1.13-.28-2.1-3.02-2.39-6.55-3.41-10.32-3.78-.64-.06-1.03.21-1.44.63-4.68 4.82-9.36 9.64-14.08 14.42-.72.73-1.01 1.46-1 2.48.04 9.22.02 18.43.02 27.65v1.3l.01.01Zm-62.92 96.22.33.15c7.17-11.95 14.89-23.55 22.71-35.48h-25.61c-1.15 0-1.18.03-1.07 1.22.16 1.71.39 3.42.57 5.13 1.03 9.66 2.05 19.32 3.08 28.98h-.01Zm-47.58-48.51c.33.27.61.23.89.23 3.05 0 6.11.01 9.16 0 1.18 0 1.21-.03 1.13-1.18-.2-2.77-.43-5.53-.63-8.3-.38-4.98-.76-9.96-1.12-14.95-.52-7.09-1.06-14.17-1.52-21.26-.43-6.7-.75-13.41-1.12-20.12-.09-1.55-.19-3.1-.27-4.66-.03-.53-.33-.64-.77-.62-.42.02-.94-.13-1.01.54-.04.39-.08.77-.1 1.16-.23 3.99-.47 7.98-.67 11.97a984.6 984.6 0 0 1-1.99 30.74c-.71 8.8-1.31 17.6-1.97 26.45h-.01Zm20.43 117.26c-.43.42-.47.81-.56 1.18-1.28 5.06-2.23 10.18-2.76 15.38-.67 6.6-.79 13.18.46 19.74 1.06 5.55 2.85 10.83 5.98 15.58.21.32.31.82.89.77-1.33-17.55-2.66-35.04-4-52.65h-.01Zm248.47-2.2c-.45.33-.41.69-.48.99-3.01 11.82-4.18 23.81-3.12 35.98.37 4.26 1.25 8.45 2.89 12.43.16.38.24.81.71 1.15v-50.55ZM379.9 203.32c1.1-1.03 2.27-2.12 3.55-3.32-.91 0-1.76.02-2.62 0-.55-.01-.79.2-.8.77-.02.93-.09 1.85-.13 2.56v-.01Z"/>
  <path fill="#FCE3D3" d="M405.68 191.05h2.06c17.72 0 35.44-.01 53.16.03 1.27 0 1.97-.38 2.67-1.44 16.13-24.6 32.31-49.18 48.47-73.77 2.99-4.55 5.98-9.09 8.98-13.63.3-.45.5-.99 1.13-1.37 1.3 2.03 1.98 4.27 2.5 6.56.76 3.31 1.06 6.68 1.06 10.08 0 11-.01 22 .02 33 0 1.02-.36 1.8-.87 2.61-22.31 35.34-44.63 70.68-66.92 106.04-7.25 11.5-14.42 23.06-21.63 34.59-.31.49-.54 1.05-1.19 1.55-.27-2.44-.53-4.67-.77-6.91-.76-7.01-1.52-14.02-2.26-21.03-.72-6.73-1.42-13.47-2.13-20.21-.01-.11 0-.23-.03-.33-.94-3.14.22-5.69 1.86-8.37 8.41-13.8 17.36-27.25 26.21-40.76.32-.49.62-1.01 1.06-1.72h-1.84c-18.33 0-36.66 0-55-.02-1.06 0-1.84.25-2.62 1.05-16.11 16.49-32.24 32.95-48.38 49.42-18.31 18.69-36.59 37.41-55.19 55.81-19.28 19.06-38.9 37.76-59.54 55.35-15.65 13.34-31.84 25.98-49.01 37.33-16.99 11.22-34.74 21.01-53.73 28.49-13.67 5.38-27.73 9.4-42.22 11.83-13.19 2.21-26.49 2.94-39.84 2.33-11.46-.52-22.74-2.24-33.68-5.87-2.53-.84-5.01-1.81-7.48-2.78-.83-.32-1.19-.8-1.24-1.71-.11-1.93-.61-3.82-.67-5.74.48-.31.79.03 1.11.17 9.36 4.1 19.14 6.68 29.19 8.4 10.74 1.84 21.53 2.18 32.38 1.53 21.28-1.28 41.79-6.02 61.64-13.74 18.07-7.03 35.03-16.2 51.26-26.75 18.57-12.07 35.94-25.72 52.69-40.17 16.24-14.01 31.82-28.74 47.13-43.76 15.66-15.37 31.02-31.04 46.34-46.75 14.47-14.83 28.96-29.64 43.44-44.46 6.17-6.32 12.35-12.63 18.52-18.95.23-.23.51-.42.61-.91h-62.01c-.33-.63.15-.82.37-1.08.83-.97 1.76-1.86 2.53-2.87.68-.9 1.5-1.11 2.57-1.11 20 .03 40 0 60 .05 1.34 0 2.24-.4 3.16-1.34 19.73-20.17 39.5-40.31 59.25-60.46 17.81-18.17 35.61-36.34 53.42-54.51 18.08-18.45 36.16-36.9 54.21-55.37.61-.63 1.22-.81 2.05-.81 4.44.02 8.89.11 13.32-.26 6.85-.57 13.52-1.85 19.72-4.98 2.75-1.39 5.24-3.13 7.37-5.36.3-.32.54-.69 1.07-.69 2.2.01 4.4 0 6.92 0l-58.33 92.44c-3.5-10.9-9.18-19.94-18.35-26.64 10.63-16.17 21.21-32.25 31.89-48.49-1.28-.27-2.42-.17-3.55-.11-.58.03-.9.61-1.28 1-3.78 3.85-7.54 7.71-11.31 11.57-9.93 10.18-19.87 20.35-29.8 30.53-12.11 12.4-24.21 24.8-36.32 37.2l-32.13 32.91c-12.22 12.52-24.45 25.04-36.67 37.56-4.7 4.81-9.39 9.62-14.09 14.43-.34.35-.66.71-1.27 1.36l.01.01Zm280.69 95.52v-2.05c0-16.83.01-33.66-.03-50.49 0-1.45.33-2.65 1.12-3.87 15.41-23.55 30.77-47.12 46.18-70.68.61-.93.83-1.68.24-2.71-.69-1.2-1.27-2.47-1.75-3.77-.37-1-.92-1.3-1.97-1.29-5 .05-10 .02-15 .02h-7.83c-.32 0-.66.1-1.1-.27 1-1.28 1.98-2.58 3.01-3.85.41-.51 1.04-.26 1.57-.26 8.05-.01 16.11 0 24.16 0 1.61 0 3.23-.07 4.83.02 1.14.07 1.79-.33 2.4-1.29 4.91-7.73 9.88-15.42 14.84-23.12 3.63-5.65 7.3-11.27 10.88-16.96.68-1.09 1.41-1.41 2.66-1.43 6.4-.13 12.73-.77 18.85-2.85 5.91-2.01 11.01-5.23 15.05-10.01.56-.67 1.14-.95 1.99-.89 1.43.09 2.87-.1 4.57.16-11.92 18.79-23.76 37.44-35.74 56.33h54.73c-.4 1.24-1.33 1.91-1.87 2.82-.75 1.27-1.77 1.66-3.27 1.66-16.94-.06-33.88-.02-50.82-.07-1.25 0-1.97.34-2.66 1.43-27.9 43.96-55.83 87.89-83.76 131.82-.32.5-.53 1.09-1.28 1.61v-.01Zm-28.55 75.48h1.52c4.67 0 9.33-.01 14 .03 6.34.05 12.12-1.93 17.63-4.83 6.93-3.66 12.98-8.53 18.66-13.87 9.46-8.9 17.64-18.92 25.38-29.31.3-.4.59-.81.89-1.21 2.85-3.7 5.23-7.61 6.96-12.02 3.18-8.08 7.78-15.45 12.49-22.72.91-1.4 1.84-2.78 2.73-4.18.36-.57.77-.83 1.48-.83 6.5.03 13 .02 19.5.02.15 0 .34-.03.47.33-.83 1.83-1.69 3.65-3.56 5.04-9.77 7.27-19.03 15.14-27.54 23.88-1.53 1.57-2.75 3.31-3.52 5.38-4.17 11.25-4.94 22.61-.89 34.04 2.18 6.14 5.92 11.16 11.67 14.47 4.98 2.87 10.4 3.75 16.06 3.22 8.06-.76 14.46-4.66 19.72-10.63 4.83-5.48 8.16-11.86 10.91-18.57 3.62-8.87 6.02-18.09 7.94-27.45 1.94-9.47 3.27-19.03 4.41-28.62 1.14-9.59 2.15-19.19 3.93-28.69 1.85-9.85 4.41-19.48 9.12-28.4 2.92-5.54 6.55-10.56 11.15-14.85 7.02-6.54 15.29-10.35 24.83-11.35 7.81-.82 15.52-.18 23.13 1.69.43.11.86.21 1.37.55-3.22 5.79-6.44 11.6-9.65 17.38-.67-.1-1.03-.55-1.47-.86-2.77-2.04-5.49-4.16-8.39-6.01-3.48-2.22-7.13-4.06-11.24-4.84-2.59-.5-5.19-.58-7.78-.04-4.9 1.01-8.16 4.04-10.21 8.49-1.91 4.15-2.58 8.58-2.86 13.09-.38 6.23.19 12.43.47 18.64.24 5.44.57 10.87.86 16.3.41 7.76.82 15.53 1.2 23.29.27 5.56.05 11.11-.31 16.65-.47 7.37-1.46 14.69-3.22 21.88-2.24 9.17-5.56 17.9-10.91 25.75-8.64 12.68-20.5 20.38-35.68 22.81-9.35 1.5-18.62 1.17-27.6-2.06-13.6-4.9-21.43-14.68-23.83-28.87-.91-5.36-.85-10.72-.04-16.09.06-.38.06-.77.1-1.29-.71.37-.98.99-1.35 1.48-5.77 7.69-11.81 15.15-18.47 22.1-6.2 6.48-12.8 12.49-20.4 17.31-5.52 3.5-11.37 6.26-17.84 7.51-5.59 1.07-11.15 1.06-16.61-.79-1.58-.54-3.08-1.25-4.49-2.14-.26-.16-.59-.29-.72-.82v.01Zm7.24-170.37c-.89 1.46-1.66 2.73-2.44 4-4.65 7.57-9.31 15.12-13.92 22.72-.57.93-1.17 1.24-2.24 1.24-9.78-.05-19.55 0-29.33-.06-1.29 0-1.96.44-2.66 1.46-5.78 8.41-8 17.73-7.11 27.81.53 6 3.29 10.87 8.07 14.57 3.98 3.08 8.55 4.9 13.34 6.22 6.28 1.75 12.72 2.55 19.21 3.03.44.03.89.06 1.33.06.58 0 .77.31.75.84-.02.44.03.89 0 1.33-.07.92.43 2.14-.27 2.68-.55.42-1.7.11-2.58.03-7.82-.7-15.53-1.9-22.94-4.61-2.98-1.09-5.85-2.41-8.54-4.09-7.59-4.72-12.41-11.28-13.46-20.44-.66.32-.87.92-1.19 1.4-9.12 13.54-17.82 27.35-26.71 41.03-3.78 5.82-7.54 11.65-11.31 17.47-.21.32-.42.64-.72 1.09-.41-.62-.24-1.17-.24-1.66-.02-12.83-.02-25.66-.03-38.5 0-3.95-.31-7.88-.99-11.77-.17-.99.02-1.79.57-2.65 4.06-6.36 8.23-12.66 11.91-19.26 2.76-4.95 5.37-9.97 6.96-15.44.98-3.39 1.42-6.83.87-10.36-.63-4.05-2.76-6.81-6.67-8.15-2.98-1.02-6.08-1.25-9.2-1.27-6.11-.03-12.22 0-18.33-.01h-1.81c.25-1.68 1.06-2.94 2.07-4.1.3-.34.7-.29 1.08-.29 7.11.01 14.22-.02 21.33.07 2.44.03 4.85.48 7.2 1.23 4.99 1.58 8.38 4.85 10.29 9.69 1.23 3.13 1.8 6.41 1.98 9.75.13 2.27.12 4.55.12 6.83.01 10.72 0 21.44.03 32.16 0 .53-.42 1.35.38 1.6.88.28 1.06-.64 1.39-1.15 3.79-5.94 7.55-11.91 11.35-17.84.53-.82.78-1.7 1.02-2.61 3.73-14.21 11.28-25.97 22.71-35.19 5.17-4.17 10.98-7.1 17.55-8.38 1.09-.21 2.19-.45 3.29-.45 5.89-.04 11.77-.02 17.91-.02l-.02-.01ZM525.68 312.17c.02.47.06.93.06 1.4-.03 5.77.05 11.54.22 17.31.26 9 1.21 17.93 2.57 26.82.12.77.21 1.54.37 2.3.11.52-.02.95-.25 1.42-.59 1.22-1.42 1.68-2.86 1.67-10.21-.08-20.42-.04-30.64-.04h-1.98c10.84-17.11 21.54-34.03 32.25-50.94.09.02.18.04.27.05l-.01.01Zm-115.25 49.89h8.31c.32 0 .66.08.97.18 5.37 1.85 10.82 1.59 16.28.57 6.94-1.3 13.13-4.34 18.9-8.31 6.77-4.66 12.64-10.31 18.15-16.36 8.47-9.29 15.98-19.34 23.28-29.56 7.68-10.76 14.98-21.77 22.4-32.7.57-.83 1.13-1.64 2.14-2.01.58-.22 1.17-.35 1.79-.31 1.59.12 1.97.89 1.08 2.22-7.62 11.27-15.24 22.53-23.14 33.6-6.26 8.77-12.67 17.43-19.64 25.65-6.29 7.43-12.95 14.5-20.67 20.49-6.37 4.94-13.25 8.93-21.12 10.98-5.92 1.54-11.91 2.07-17.97.85-3.53-.71-6.78-2.08-9.7-4.19-.35-.25-.78-.43-1.05-1.11l-.01.01Z"/>
  <path fill="#FCE3D3" d="M401.54 304.08c1.34 17.61 2.67 35.1 4 52.65-.58.05-.68-.46-.89-.77-3.13-4.75-4.92-10.03-5.98-15.58-1.25-6.55-1.13-13.13-.46-19.74.53-5.2 1.48-10.32 2.76-15.38.09-.37.14-.76.56-1.18h.01Zm248.47-2.2v50.55c-.47-.34-.55-.77-.71-1.15-1.64-3.99-2.52-8.17-2.89-12.43-1.06-12.17.11-24.16 3.12-35.98.07-.29.03-.66.48-.99ZM552.03 47.69c-.12-.13-.25-.25-.37-.38.3-.59.85-.95 1.27-1.43l-.02-.05c.29.89-.44 1.3-.88 1.85v.01Z"/>
  <path fill="#FCE3D3" d="M552.92 45.88c.1-.03.2-.05.3-.08-.04.07-.06.17-.12.2-.09.05-.17-.02-.2-.17l.02.04v.01Z"/>
  <path fill="#030303" d="M85.13 82.112c0-11.834 5.611-18.544 16.591-18.544 11.346 0 17.141 7.015 17.141 18.544v6.832c0 11.895-5.551 18.788-17.202 18.788-11.407 0-16.53-6.649-16.53-18.971v-6.649Zm2.927-.488v7.747c0 10.736 4.392 15.921 13.786 15.921 9.516 0 14.091-5.368 14.091-15.86v-7.808c0-10.065-4.758-15.616-13.969-15.616-9.21 0-13.908 5.429-13.908 15.616Zm16.592-2.196c0-3.172-.793-4.453-2.806-4.453-1.89 0-2.684 1.159-2.684 3.843v13.237c0 2.867.793 4.148 2.684 4.148 1.952 0 2.806-1.342 2.806-4.514v-3.477h3.965v2.928c0 5.673-2.318 8.479-6.771 8.479-4.33 0-6.71-2.684-6.71-7.991V79.184c0-5.063 2.38-7.625 6.71-7.625 4.453 0 6.771 2.745 6.771 8.357v2.928h-3.965v-3.416Z"/>
</svg>
