<svg xmlns="http://www.w3.org/2000/svg" viewBox="0 0 1536 43" preserveAspectRatio="xMidYMid meet" style="width: 100%; height: auto;">
  <path fill="#FFE5D5" d="M8 19h1v24H8zM4.328 8.048h-3.6v-.864h3.6v.864Zm4.552-1.38c.756.12 1.284.36 1.596.72.312.36.468.828.468 1.38 0 .48-.132.9-.372 1.26-.252.372-.6.66-1.032.864-.444.204-.936.3-1.488.3-.936 0-1.656-.24-2.172-.72-.528-.48-.78-1.152-.768-2.004h.984c.012.612.192 1.068.54 1.368.336.312.816.456 1.416.456.552 0 1.008-.144 1.344-.444.336-.288.504-.696.504-1.2 0-.528-.18-.912-.516-1.176-.348-.252-.816-.384-1.392-.384h-.624V6.26h.564c.528 0 .96-.132 1.272-.42.312-.276.48-.648.48-1.128 0-.444-.156-.792-.468-1.032-.312-.24-.72-.372-1.224-.372-1.152 0-1.752.624-1.776 1.848H5.22c0-.888.252-1.572.756-2.04.492-.468 1.164-.708 2.016-.708.792 0 1.44.204 1.944.6.492.408.744.96.744 1.68 0 .468-.144.876-.408 1.236-.276.36-.744.588-1.392.672v.072Zm8.456-3.156c.54.744.816 1.836.816 3.288 0 1.464-.276 2.556-.816 3.288-.54.732-1.32 1.092-2.34 1.092-1.02 0-1.8-.36-2.34-1.092-.54-.732-.804-1.824-.804-3.288 0-1.452.264-2.544.804-3.288.54-.732 1.32-1.104 2.34-1.104 1.02 0 1.8.372 2.34 1.104Zm-3.924.672c-.336.576-.504 1.44-.504 2.616 0 .768.072 1.416.216 1.932l3.36-4.704c-.336-.468-.84-.708-1.488-.708-.72 0-1.248.288-1.584.864Zm3.168 5.232c.336-.576.516-1.44.516-2.616 0-.876-.096-1.584-.276-2.112L13.436 9.44c.336.552.852.828 1.56.828.72 0 1.248-.276 1.584-.852Z" stroke-dasharray="156.03424072265625" stroke-dashoffset="156.03424072265625" style="transition: stroke-dashoffset 5000ms ease-out; stroke-dashoffset: 0px;"></path>
  <path fill="#FF7E63" d="M32.292 31h1v12h-1zm26 0h1v12h-1zm26 0h1v12h-1zm26 0h1v12h-1z" stroke-dasharray="104" stroke-dashoffset="104" style="transition: stroke-dashoffset 5000ms ease-out; stroke-dashoffset: 0px;"></path>
  <path fill="#FFE5D5" d="M134.583 19h1v24h-1zm-3.891-10.952h-3.6v-.864h3.6v.864Zm1.031 2.112c.192-.192.408-.384.624-.576.216-.192.432-.396.648-.612a63.013 63.013 0 0 0 1.908-1.8c.42-.432.756-.828.996-1.212s.36-.756.36-1.128c0-.48-.156-.852-.456-1.116-.312-.264-.72-.408-1.224-.408-.552 0-.984.156-1.296.456-.312.3-.468.768-.468 1.392h-.984c-.012-.888.24-1.56.744-2.04.504-.468 1.164-.708 2.004-.708.528 0 1.008.108 1.416.3.408.204.72.492.948.852.216.36.336.792.336 1.272 0 .516-.132 1.008-.396 1.464a6.59 6.59 0 0 1-1.056 1.332c-.444.432-1.08.996-1.908 1.704-.204.168-.492.42-.864.744l.024.072a41.76 41.76 0 0 1 2.052-.048h2.196v.9h-5.592l-.012-.84Zm11.075-4.272c.408.24.72.564.936.996.216.432.336.924.336 1.476 0 .552-.132 1.044-.372 1.476-.24.432-.588.756-1.02.996-.444.24-.948.36-1.524.36-.528 0-1.008-.096-1.428-.3a2.49 2.49 0 0 1-1.008-.888 2.618 2.618 0 0 1-.42-1.344h.984c.048.516.24.912.588 1.2.348.288.78.432 1.284.432.552 0 .996-.18 1.356-.54.348-.36.528-.816.528-1.392 0-.552-.18-1.02-.528-1.392-.348-.36-.804-.552-1.356-.552-.816 0-1.392.348-1.728 1.032l-.888-.168.672-4.68h4.5v.888h-3.684l-.48 3.096.072.012c.108-.312.336-.576.672-.768.336-.192.708-.3 1.104-.3.528 0 .996.12 1.404.36Z" stroke-dasharray="144.8756103515625" stroke-dashoffset="144.8756103515625" style="transition: stroke-dashoffset 5000ms ease-out; stroke-dashoffset: 0px;"></path>
  <path fill="#FF7E63" d="M158.875 31h1v12h-1zm26 0h1v12h-1zm26 0h1v12h-1zm26 0h1v12h-1z" stroke-dasharray="104" stroke-dashoffset="104" style="transition: stroke-dashoffset 5000ms ease-out; stroke-dashoffset: 0px;"></path>
  <path fill="#FFE5D5" d="M261.167 19h1v24h-1zm-3.625-10.952h-3.6v-.864h3.6v.864Zm1.031 2.112c.192-.192.408-.384.624-.576.216-.192.432-.396.648-.612a63.013 63.013 0 0 0 1.908-1.8c.42-.432.756-.828.996-1.212s.36-.756.36-1.128c0-.48-.156-.852-.456-1.116-.312-.264-.72-.408-1.224-.408-.552 0-.984.156-1.296.456-.312.3-.468.768-.468 1.392h-.984c-.012-.888.24-1.56.744-2.04.504-.468 1.164-.708 2.004-.708.528 0 1.008.108 1.416.3.408.204.72.492.948.852.216.36.336.792.336 1.272 0 .516-.132 1.008-.396 1.464a6.59 6.59 0 0 1-1.056 1.332c-.444.432-1.08.996-1.908 1.704-.204.168-.492.42-.864.744l.024.072a41.76 41.76 0 0 1 2.052-.048h2.196v.9h-5.592l-.012-.84Zm11.883-6.648c.54.744.816 1.836.816 3.288 0 1.464-.276 2.556-.816 3.288-.54.732-1.32 1.092-2.34 1.092-1.02 0-1.8-.36-2.34-1.092-.54-.732-.804-1.824-.804-3.288 0-1.452.264-2.544.804-3.288.54-.732 1.32-1.104 2.34-1.104 1.02 0 1.8.372 2.34 1.104Zm-3.924.672c-.336.576-.504 1.44-.504 2.616 0 .768.072 1.416.216 1.932l3.36-4.704c-.336-.468-.84-.708-1.488-.708-.72 0-1.248.288-1.584.864Zm3.168 5.232c.336-.576.516-1.44.516-2.616 0-.876-.096-1.584-.276-2.112l-3.384 4.752c.336.552.852.828 1.56.828.72 0 1.248-.276 1.584-.852Z" stroke-dasharray="152.60293579101562" stroke-dashoffset="152.60293579101562" style="transition: stroke-dashoffset 5000ms ease-out; stroke-dashoffset: 0px;"></path>
  <path fill="#FF7E63" d="M285.458 31h1v12h-1zm26 0h1v12h-1zm26 0h1v12h-1zm26 0h1v12h-1z" stroke-dasharray="104" stroke-dashoffset="104" style="transition: stroke-dashoffset 5000ms ease-out; stroke-dashoffset: 0px;"></path>
  <path fill="#FFE5D5" d="M387.75 19h1v24h-1zm-3.516-10.952h-3.6v-.864h3.6v.864Zm3.538 2.088h2.304V11h-5.772v-.864h2.46V3.92l-.06-.012c-.204.408-.48.72-.828.924-.348.216-.78.312-1.308.312h-.144V4.1c.732 0 1.344-.132 1.824-.396s.768-.636.864-1.104h.66v7.536Zm7.818-4.248c.408.24.72.564.936.996.216.432.336.924.336 1.476 0 .552-.132 1.044-.372 1.476-.24.432-.588.756-1.02.996-.444.24-.948.36-1.524.36-.528 0-1.008-.096-1.428-.3a2.49 2.49 0 0 1-1.008-.888 2.618 2.618 0 0 1-.42-1.344h.984c.048.516.24.912.588 1.2.348.288.78.432 1.284.432.552 0 .996-.18 1.356-.54.348-.36.528-.816.528-1.392 0-.552-.18-1.02-.528-1.392-.348-.36-.804-.552-1.356-.552-.816 0-1.392.348-1.728 1.032l-.888-.168.672-4.68h4.5v.888h-3.684l-.48 3.096.072.012c.108-.312.336-.576.672-.768.336-.192.708-.3 1.104-.3.528 0 .996.12 1.404.36Z" stroke-dasharray="138.0640411376953" stroke-dashoffset="138.0640411376953" style="transition: stroke-dashoffset 5000ms ease-out; stroke-dashoffset: 0px;"></path>
  <path fill="#FF7E63" d="M412.042 31h1v12h-1zm26 0h1v12h-1zm26 0h1v12h-1zm26 0h1v12h-1z" stroke-dasharray="104" stroke-dashoffset="104" style="transition: stroke-dashoffset 5000ms ease-out; stroke-dashoffset: 0px;"></path>
  <path fill="#FFE5D5" d="M514.333 19h1v24h-1zm-3.75-10.952h-3.6v-.864h3.6v.864Zm3.538 2.088h2.304V11h-5.772v-.864h2.46V3.92l-.06-.012c-.204.408-.48.72-.828.924-.348.216-.78.312-1.308.312h-.144V4.1c.732 0 1.344-.132 1.824-.396s.768-.636.864-1.104h.66v7.536Zm8.626-6.624c.54.744.816 1.836.816 3.288 0 1.464-.276 2.556-.816 3.288-.54.732-1.32 1.092-2.34 1.092-1.02 0-1.8-.36-2.34-1.092-.54-.732-.804-1.824-.804-3.288 0-1.452.264-2.544.804-3.288.54-.732 1.32-1.104 2.34-1.104 1.02 0 1.8.372 2.34 1.104Zm-3.924.672c-.336.576-.504 1.44-.504 2.616 0 .768.072 1.416.216 1.932l3.36-4.704c-.336-.468-.84-.708-1.488-.708-.72 0-1.248.288-1.584.864Zm3.168 5.232c.336-.576.516-1.44.516-2.616 0-.876-.096-1.584-.276-2.112l-3.384 4.752c.336.552.852.828 1.56.828.72 0 1.248-.276 1.584-.852Z" stroke-dasharray="145.79115295410156" stroke-dashoffset="145.79115295410156" style="transition: stroke-dashoffset 5000ms ease-out; stroke-dashoffset: 0px;"></path>
  <path fill="#FF7E63" d="M538.625 31h1v12h-1zm26 0h1v12h-1zm26 0h1v12h-1zm26 0h1v12h-1z" stroke-dasharray="104" stroke-dashoffset="104" style="transition: stroke-dashoffset 5000ms ease-out; stroke-dashoffset: 0px;"></path>
  <path fill="#FFE5D5" d="M640.917 19h1v24h-1zm-.627-10.952h-3.6v-.864h3.6v.864Zm5.579-2.16c.408.24.72.564.936.996.216.432.336.924.336 1.476 0 .552-.132 1.044-.372 1.476-.24.432-.588.756-1.02.996-.444.24-.948.36-1.524.36-.528 0-1.008-.096-1.428-.3a2.49 2.49 0 0 1-1.008-.888 2.618 2.618 0 0 1-.42-1.344h.984c.048.516.24.912.588 1.2.348.288.78.432 1.284.432.552 0 .996-.18 1.356-.54.348-.36.528-.816.528-1.392 0-.552-.18-1.02-.528-1.392-.348-.36-.804-.552-1.356-.552-.816 0-1.392.348-1.728 1.032l-.888-.168.672-4.68h4.5v.888h-3.684l-.48 3.096.072.012c.108-.312.336-.576.672-.768.336-.192.708-.3 1.104-.3.528 0 .996.12 1.404.36Z" stroke-dasharray="104.18214416503906" stroke-dashoffset="104.18214416503906" style="transition: stroke-dashoffset 5000ms ease-out; stroke-dashoffset: 0px;"></path>
  <path fill="#FF7E63" d="M665.208 31h1v12h-1zm26 0h1v12h-1zm26 0h1v12h-1zm26 0h1v12h-1z" stroke-dasharray="104" stroke-dashoffset="104" style="transition: stroke-dashoffset 5000ms ease-out; stroke-dashoffset: 0px;"></path>
  <path fill="#FFE5D5" d="M767.5 19h1v24h-1zm3.334-15.488c.54.744.816 1.836.816 3.288 0 1.464-.276 2.556-.816 3.288-.54.732-1.32 1.092-2.34 1.092-1.02 0-1.8-.36-2.34-1.092-.54-.732-.804-1.824-.804-3.288 0-1.452.264-2.544.804-3.288.54-.732 1.32-1.104 2.34-1.104 1.02 0 1.8.372 2.34 1.104Zm-3.924.672c-.336.576-.504 1.44-.504 2.616 0 .768.072 1.416.216 1.932l3.36-4.704c-.336-.468-.84-.708-1.488-.708-.72 0-1.248.288-1.584.864Zm3.168 5.232c.336-.576.516-1.44.516-2.616 0-.876-.096-1.584-.276-2.112l-3.384 4.752c.336.552.852.828 1.56.828.72 0 1.248-.276 1.584-.852Z" stroke-dasharray="102.981201171875" stroke-dashoffset="102.981201171875" style="transition: stroke-dashoffset 5000ms ease-out; stroke-dashoffset: 0px;"></path>
  <path fill="#FF7E63" d="M791.792 31h1v12h-1zm26 0h1v12h-1zm26 0h1v12h-1zm26 0h1v12h-1z" stroke-dasharray="104" stroke-dashoffset="104" style="transition: stroke-dashoffset 5000ms ease-out; stroke-dashoffset: 0px;"></path>
  <path fill="#FFE5D5" d="M894.083 19h1v24h-1zm3.172-13.112c.408.24.72.564.936.996.216.432.336.924.336 1.476 0 .552-.132 1.044-.372 1.476-.24.432-.588.756-1.02.996-.444.24-.948.36-1.524.36-.528 0-1.008-.096-1.428-.3a2.49 2.49 0 0 1-1.008-.888 2.618 2.618 0 0 1-.42-1.344h.984c.048.516.24.912.588 1.2.348.288.78.432 1.284.432.552 0 .996-.18 1.356-.54.348-.36.528-.816.528-1.392 0-.552-.18-1.02-.528-1.392-.348-.36-.804-.552-1.356-.552-.816 0-1.392.348-1.728 1.032l-.888-.168.672-4.68h4.5v.888h-3.684l-.48 3.096.072.012c.108-.312.336-.576.672-.768.336-.192.708-.3 1.104-.3.528 0 .996.12 1.404.36Z" stroke-dasharray="95.25421905517578" stroke-dashoffset="95.25421905517578" style="transition: stroke-dashoffset 5000ms ease-out; stroke-dashoffset: 0px;"></path>
  <path fill="#FF7E63" d="M918.375 31h1v12h-1zm26 0h1v12h-1zm26 0h1v12h-1zm26 0h1v12h-1z" stroke-dasharray="104" stroke-dashoffset="104" style="transition: stroke-dashoffset 5000ms ease-out; stroke-dashoffset: 0px;"></path>
  <path fill="#FFE5D5" d="M1020.67 19h1v24h-1zm-1.51-8.864h2.3V11h-5.77v-.864h2.46V3.92l-.06-.012c-.21.408-.48.72-.83.924-.35.216-.78.312-1.31.312h-.14V4.1c.73 0 1.34-.132 1.82-.396s.77-.636.87-1.104h.66v7.536Zm8.62-6.624c.54.744.82 1.836.82 3.288 0 1.464-.28 2.556-.82 3.288-.54.732-1.32 1.092-2.34 1.092-1.02 0-1.8-.36-2.34-1.092-.54-.732-.8-1.824-.8-3.288 0-1.452.26-2.544.8-3.288.54-.732 1.32-1.104 2.34-1.104 1.02 0 1.8.372 2.34 1.104Zm-3.92.672c-.34.576-.51 1.44-.51 2.616 0 .768.08 1.416.22 1.932l3.36-4.704c-.34-.468-.84-.708-1.49-.708-.72 0-1.25.288-1.58.864Zm3.17 5.232c.33-.576.51-1.44.51-2.616 0-.876-.09-1.584-.27-2.112l-3.39 4.752c.34.552.85.828 1.56.828.72 0 1.25-.276 1.59-.852Z" stroke-dasharray="136.86099243164062" stroke-dashoffset="136.86099243164062" style="transition: stroke-dashoffset 5000ms ease-out; stroke-dashoffset: 0px;"></path>
  <path fill="#FF7E63" d="M1044.96 31h1v12h-1zm26 0h1v12h-1zm26 0h1v12h-1zm26 0h1v12h-1z" stroke-dasharray="104" stroke-dashoffset="104" style="transition: stroke-dashoffset 5000ms ease-out; stroke-dashoffset: 0px;"></path>
  <path fill="#FFE5D5" d="M1147.25 19h1v24h-1zm-1.78-8.864h2.31V11h-5.77v-.864h2.46V3.92l-.06-.012c-.21.408-.48.72-.83.924-.35.216-.78.312-1.31.312h-.14V4.1c.73 0 1.34-.132 1.82-.396s.77-.636.86-1.104h.66v7.536Zm7.82-4.248c.41.24.72.564.94.996.21.432.33.924.33 1.476 0 .552-.13 1.044-.37 1.476-.24.432-.59.756-1.02.996-.44.24-.95.36-1.52.36-.53 0-1.01-.096-1.43-.3a2.483 2.483 0 0 1-1.01-.888 2.695 2.695 0 0 1-.42-1.344h.99c.04.516.24.912.58 1.2.35.288.78.432 1.29.432.55 0 .99-.18 1.35-.54.35-.36.53-.816.53-1.392 0-.552-.18-1.02-.53-1.392-.34-.36-.8-.552-1.35-.552-.82 0-1.39.348-1.73 1.032l-.89-.168.67-4.68h4.5v.888h-3.68l-.48 3.096.07.012c.11-.312.34-.576.67-.768.34-.192.71-.3 1.11-.3.53 0 .99.12 1.4.36Z" stroke-dasharray="129.1297607421875" stroke-dashoffset="129.1297607421875" style="transition: stroke-dashoffset 5000ms ease-out; stroke-dashoffset: 0px;"></path>
  <path fill="#FF7E63" d="M1171.54 31h1v12h-1zm26 0h1v12h-1zm26 0h1v12h-1zm26 0h1v12h-1z" stroke-dasharray="104" stroke-dashoffset="104" style="transition: stroke-dashoffset 5000ms ease-out; stroke-dashoffset: 0px;"></path>
  <path fill="#FFE5D5" d="M1273.83 19h1v24h-1zm-5.37-8.84c.19-.192.41-.384.62-.576.22-.192.44-.396.65-.612.84-.768 1.48-1.368 1.91-1.8.42-.432.76-.828 1-1.212s.36-.756.36-1.128c0-.48-.16-.852-.46-1.116-.31-.264-.72-.408-1.22-.408-.56 0-.99.156-1.3.456-.31.3-.47.768-.47 1.392h-.98c-.01-.888.24-1.56.74-2.04.51-.468 1.17-.708 2.01-.708.52 0 1 .108 1.41.3.41.204.72.492.95.852.22.36.34.792.34 1.272a2.93 2.93 0 0 1-.4 1.464c-.26.456-.62.9-1.06 1.332-.44.432-1.08.996-1.9 1.704-.21.168-.5.42-.87.744l.03.072c.49-.024 1.17-.048 2.05-.048h2.19v.9h-5.59l-.01-.84Zm11.88-6.648c.54.744.82 1.836.82 3.288 0 1.464-.28 2.556-.82 3.288-.54.732-1.32 1.092-2.34 1.092-1.02 0-1.8-.36-2.34-1.092-.54-.732-.8-1.824-.8-3.288 0-1.452.26-2.544.8-3.288.54-.732 1.32-1.104 2.34-1.104 1.02 0 1.8.372 2.34 1.104Zm-3.92.672c-.34.576-.51 1.44-.51 2.616 0 .768.08 1.416.22 1.932l3.36-4.704c-.34-.468-.84-.708-1.49-.708-.72 0-1.25.288-1.58.864Zm3.17 5.232c.33-.576.51-1.44.51-2.616 0-.876-.09-1.584-.27-2.112l-3.39 4.752c.34.552.85.828 1.56.828.72 0 1.25-.276 1.59-.852Z" stroke-dasharray="143.67605590820312" stroke-dashoffset="143.67605590820312" style="transition: stroke-dashoffset 5000ms ease-out; stroke-dashoffset: 0px;"></path>
  <path fill="#FF7E63" d="M1298.12 31h1v12h-1zm26 0h1v12h-1zm26 0h1v12h-1zm26 0h1v12h-1z" stroke-dasharray="104" stroke-dashoffset="104" style="transition: stroke-dashoffset 5000ms ease-out; stroke-dashoffset: 0px;"></path>
  <path fill="#FFE5D5" d="M1400.42 19h1v24h-1zm-5.14-8.84c.19-.192.4-.384.62-.576.22-.192.43-.396.65-.612.84-.768 1.47-1.368 1.91-1.8.42-.432.75-.828.99-1.212s.36-.756.36-1.128c0-.48-.15-.852-.45-1.116-.32-.264-.72-.408-1.23-.408-.55 0-.98.156-1.29.456-.32.3-.47.768-.47 1.392h-.99c-.01-.888.24-1.56.75-2.04.5-.468 1.16-.708 2-.708.53 0 1.01.108 1.42.3.41.204.72.492.95.852.21.36.33.792.33 1.272 0 .516-.13 1.008-.39 1.464-.27.456-.63.9-1.06 1.332-.44.432-1.08.996-1.91 1.704-.2.168-.49.42-.86.744l.02.072c.49-.024 1.18-.048 2.05-.048h2.2v.9h-5.59l-.01-.84Zm11.07-4.272c.41.24.72.564.94.996.21.432.33.924.33 1.476 0 .552-.13 1.044-.37 1.476-.24.432-.59.756-1.02.996-.44.24-.95.36-1.52.36-.53 0-1.01-.096-1.43-.3a2.483 2.483 0 0 1-1.01-.888 2.695 2.695 0 0 1-.42-1.344h.99c.04.516.24.912.58 1.2.35.288.78.432 1.29.432.55 0 .99-.18 1.35-.54.35-.36.53-.816.53-1.392 0-.552-.18-1.02-.53-1.392-.34-.36-.8-.552-1.35-.552-.82 0-1.39.348-1.73 1.032l-.89-.168.67-4.68h4.5v.888h-3.68l-.48 3.096.07.012c.11-.312.34-.576.67-.768.34-.192.71-.3 1.11-.3.53 0 .99.12 1.4.36Z" stroke-dasharray="135.94593811035156" stroke-dashoffset="135.94593811035156" style="transition: stroke-dashoffset 5000ms ease-out; stroke-dashoffset: 0px;"></path>
  <path fill="#FF7E63" d="M1424.71 31h1v12h-1zm26 0h1v12h-1zm26 0h1v12h-1zm26 0h1v12h-1z" stroke-dasharray="104" stroke-dashoffset="104" style="transition: stroke-dashoffset 5000ms ease-out; stroke-dashoffset: 0px;"></path>
  <path fill="#FFE5D5" d="M1527 19h1v24h-1zm-1.28-12.332c.75.12 1.28.36 1.59.72.32.36.47.828.47 1.38 0 .48-.13.9-.37 1.26-.25.372-.6.66-1.03.864-.45.204-.94.3-1.49.3-.94 0-1.66-.24-2.17-.72-.53-.48-.78-1.152-.77-2.004h.98c.02.612.2 1.068.54 1.368.34.312.82.456 1.42.456.55 0 1.01-.144 1.34-.444.34-.288.51-.696.51-1.2 0-.528-.18-.912-.52-1.176-.35-.252-.81-.384-1.39-.384h-.62V6.26h.56c.53 0 .96-.132 1.27-.42.31-.276.48-.648.48-1.128 0-.444-.15-.792-.47-1.032-.31-.24-.72-.372-1.22-.372-1.15 0-1.75.624-1.78 1.848h-.99c0-.888.25-1.572.75-2.04.5-.468 1.17-.708 2.02-.708.79 0 1.44.204 1.94.6.5.408.75.96.75 1.68 0 .468-.15.876-.41 1.236-.28.36-.74.588-1.39.672v.072Zm8.45-3.156c.54.744.82 1.836.82 3.288 0 1.464-.28 2.556-.82 3.288-.54.732-1.32 1.092-2.34 1.092-1.02 0-1.8-.36-2.34-1.092-.54-.732-.8-1.824-.8-3.288 0-1.452.26-2.544.8-3.288.54-.732 1.32-1.104 2.34-1.104 1.02 0 1.8.372 2.34 1.104Zm-3.92.672c-.34.576-.5 1.44-.5 2.616 0 .768.07 1.416.21 1.932l3.36-4.704c-.33-.468-.84-.708-1.49-.708-.72 0-1.24.288-1.58.864Zm3.17 5.232c.33-.576.51-1.44.51-2.616 0-.876-.09-1.584-.27-2.112l-3.39 4.752c.34.552.86.828 1.56.828.72 0 1.25-.276 1.59-.852Z" stroke-dasharray="147.08346557617188" stroke-dashoffset="147.08346557617188" style="transition: stroke-dashoffset 5000ms ease-out; stroke-dashoffset: 0px;"></path>
</svg>