<svg xmlns="http://www.w3.org/2000/svg" width="115" height="57" fill="none" viewBox="0 0 115 57">
  <g clip-path="url(#a)">
    <path fill="#FFE5D5" d="M86.269 9.608V47h-4.54V30.174h-4.007V47h-4.54V9.608h4.54v16.88h4.006V9.608h4.54Zm-44.542 0L38.202 47h-5.876L30.51 20.452l-.214-3.846h-.213l-.16 3.846L28.052 47h-5.876L18.65 9.608h4.54l1.71 27.724.107 3.846h.214l.16-3.846 2.083-27.724h5.449l2.136 27.724.214 3.846h.214l.106-3.846 1.603-27.724h4.54Zm10.02 0L55.753 47h-4.54l-.695-9.134H47.1L46.405 47h-4.54l4.06-37.392h5.822ZM47.42 34.18h2.778l-1.069-14.155-.213-3.793h-.214l-.214 3.793L47.42 34.18Zm9.956-24.572h6.143c4.487 0 7.212 2.671 7.212 7.853v5.555c0 3.258-1.23 5.395-3.58 6.196v.16c2.35.802 3.58 2.992 3.58 6.25v5.983c0 2.19.106 3.258.427 5.181V47h-4.54c-.321-2.03-.428-3.205-.428-5.395V34.5c0-2.35-.801-3.312-2.67-3.312h-1.603V47h-4.54V9.608Zm4.54 3.686v14.209h1.603c1.87 0 2.671-1.015 2.671-3.365v-7.532c0-2.35-.801-3.312-2.67-3.312h-1.603Z"/>
    <path fill="#FFE5D5" d="M86.27 9.608V47h-4.541V30.174h-4.006V47h-4.54V9.608h4.54v16.88h4.006V9.608h4.54Zm15.913 6.784v23.77c0 5.075-2.404 7.64-6.623 7.64-4.274 0-6.73-2.618-6.73-7.64v-23.77c0-5.02 2.456-7.585 6.73-7.585 4.22 0 6.623 2.51 6.623 7.585Zm-4.54-.587c0-2.35-.641-3.312-2.137-3.312s-2.136.961-2.136 3.312V40.75c0 2.297.64 3.365 2.136 3.365s2.137-1.014 2.137-3.365V15.805Zm7.099-6.197h4.54v33.706h4.808V47h-9.348V9.608Z"/>
    <mask id="b" width="113" height="57" x=".75" y="1" fill="#000" maskUnits="userSpaceOnUse">
      <path fill="#fff" d="M.75 1h113v57H.75z"/>
      <path d="M8.232 56.337c-2.273 0-4.423-.307-6.39-1.167l-.122-.921c1.843.86 4.362 1.351 6.45 1.351 13.392 0 23.65-11.057 36.243-23.957l5.406-5.529h-7.863l.553-.614h7.924L71.565 3.938h.983c2.088 0 3.563-.553 4.3-1.413h.921L57.805 34.161c-4.484 7.249-5.774 8.846-5.774 10.935 0 1.413.86 1.965 2.15 1.965 3.44 0 6.204-3.378 10.258-9.398l1.167-1.72c.246-.184.492-.184.615 0l-1.168 1.72c-4.115 6.02-7.064 9.951-10.934 9.951-3.01 0-3.747-2.948-3.747-4.73 0-3.194 1.29-7.064 6.266-14.62l1.413-2.15h-7.31l-5.898 6.02C32.005 45.22 21.5 56.337 8.232 56.337ZM51.355 25.5h7.126L72.178 4.675h-.491L51.355 25.5Zm31.769 10.873c-5.037 0-7.003-1.659-7.188-3.747l-.982 1.474-3.133 4.853L66.599 47h-4.3l8.907-14.067c1.352-2.089 2.15-3.563 2.15-4.669 0-1.044-.43-1.597-2.027-1.597h-2.518c.061-.246.184-.43.307-.553h2.457c1.904 0 2.764.86 2.764 3.133v4.546h.123l1.597-2.519c.553-2.641 3.01-5.713 5.836-5.713H83.8l-2.15 3.502h-4.054c-.799 1.105-1.044 2.088-1.044 3.255 0 2.396 2.15 3.44 6.941 3.44h.676c.061.185-.123.492-.369.615h-.675Zm1.604 11.057c-1.843 0-3.318-1.106-3.318-4.423 0-4.177 1.597-7.064 4.485-11.549l6.573-10.074-.369-.799h-3.194l.43-.552h3.993l3.44-5.345c2.088 0 3.563-.491 4.545-1.72h.738l-4.485 7.065h6.88l-.43.552h-6.818L87.43 35.944c-3.132 4.976-4.607 7.064-4.607 9.03 0 1.29.615 1.904 2.027 1.904 3.133 0 6.635-4.239 9.522-8.661l1.474-2.273c.246-.123.492-.123.614 0l-1.535 2.334c-2.949 4.484-6.512 9.153-10.197 9.153Zm13.335 0c-3.195 0-5.283-1.843-5.283-4.976 0-2.457 1.351-4.668 2.703-6.696h2.64l-.245.492c-1.72 1.29-2.887 2.334-3.931 3.44-.43.86-.615 1.843-.615 2.764 0 2.212 1.168 4.116 3.44 4.116 3.686 0 5.038-5.16 5.652-10.074.369-2.888.553-6.143 2.15-8.478.921-1.351 2.396-2.58 4.791-2.58.553 0 1.536.062 2.335.308l-1.229 2.211c-.921-.676-1.904-1.536-3.133-1.536-1.535 0-2.273 1.29-2.088 4.116l.307 5.959c.184 8.354-3.747 10.934-7.495 10.934Z"/>
    </mask>
    <path fill="#FB4E2B" d="M8.232 56.337c-2.273 0-4.423-.307-6.39-1.167l-.122-.921c1.843.86 4.362 1.351 6.45 1.351 13.392 0 23.65-11.057 36.243-23.957l5.406-5.529h-7.863l.553-.614h7.924L71.565 3.938h.983c2.088 0 3.563-.553 4.3-1.413h.921L57.805 34.161c-4.484 7.249-5.774 8.846-5.774 10.935 0 1.413.86 1.965 2.15 1.965 3.44 0 6.204-3.378 10.258-9.398l1.167-1.72c.246-.184.492-.184.615 0l-1.168 1.72c-4.115 6.02-7.064 9.951-10.934 9.951-3.01 0-3.747-2.948-3.747-4.73 0-3.194 1.29-7.064 6.266-14.62l1.413-2.15h-7.31l-5.898 6.02C32.005 45.22 21.5 56.337 8.232 56.337ZM51.355 25.5h7.126L72.178 4.675h-.491L51.355 25.5Zm31.769 10.873c-5.037 0-7.003-1.659-7.188-3.747l-.982 1.474-3.133 4.853L66.599 47h-4.3l8.907-14.067c1.352-2.089 2.15-3.563 2.15-4.669 0-1.044-.43-1.597-2.027-1.597h-2.518c.061-.246.184-.43.307-.553h2.457c1.904 0 2.764.86 2.764 3.133v4.546h.123l1.597-2.519c.553-2.641 3.01-5.713 5.836-5.713H83.8l-2.15 3.502h-4.054c-.799 1.105-1.044 2.088-1.044 3.255 0 2.396 2.15 3.44 6.941 3.44h.676c.061.185-.123.492-.369.615h-.675Zm1.604 11.057c-1.843 0-3.318-1.106-3.318-4.423 0-4.177 1.597-7.064 4.485-11.549l6.573-10.074-.369-.799h-3.194l.43-.552h3.993l3.44-5.345c2.088 0 3.563-.491 4.545-1.72h.738l-4.485 7.065h6.88l-.43.552h-6.818L87.43 35.944c-3.132 4.976-4.607 7.064-4.607 9.03 0 1.29.615 1.904 2.027 1.904 3.133 0 6.635-4.239 9.522-8.661l1.474-2.273c.246-.123.492-.123.614 0l-1.535 2.334c-2.949 4.484-6.512 9.153-10.197 9.153Zm13.335 0c-3.195 0-5.283-1.843-5.283-4.976 0-2.457 1.351-4.668 2.703-6.696h2.64l-.245.492c-1.72 1.29-2.887 2.334-3.931 3.44-.43.86-.615 1.843-.615 2.764 0 2.212 1.168 4.116 3.44 4.116 3.686 0 5.038-5.16 5.652-10.074.369-2.888.553-6.143 2.15-8.478.921-1.351 2.396-2.58 4.791-2.58.553 0 1.536.062 2.335.308l-1.229 2.211c-.921-.676-1.904-1.536-3.133-1.536-1.535 0-2.273 1.29-2.088 4.116l.307 5.959c.184 8.354-3.747 10.934-7.495 10.934Z"/>
    <path fill="#000" d="m1.843 55.17-.744.1.056.418.387.17.3-.688Zm-.123-.921.317-.68-1.241-.58.18 1.359.744-.1Zm42.693-22.606-.536-.525.536.525Zm5.406-5.529.536.524 1.246-1.274H49.82v.75Zm-7.863 0-.557-.502-1.127 1.252h1.684v-.75Zm.553-.614v-.75h-.334l-.223.248.557.502Zm7.924 0v.75h.315l.221-.225-.536-.525ZM71.565 3.938v-.75h-.315l-.22.225.535.525Zm5.283-1.413v-.75h-.345l-.225.262.57.488Zm.921 0 .634.4.726-1.15h-1.36v.75ZM57.805 34.161l-.635-.4-.003.006.638.394Zm6.634 3.502-.62-.421-.002.002.622.419Zm1.167-1.72-.45-.6-.1.075-.07.104.62.42Zm.615 0 .62.42.284-.416-.28-.42-.624.416Zm-1.168 1.72.62.423.001-.002-.62-.421Zm-8.415-9.399.626.413v-.001l-.626-.412Zm1.413-2.15.626.412.764-1.162h-1.39v.75Zm-7.31 0v-.75h-.316l-.22.225.535.525Zm-5.898 6.02.536.525-.536-.525Zm6.512-6.634-.537-.524-1.244 1.274h1.78v-.75Zm7.126 0v.75h.404l.222-.338-.627-.412ZM72.178 4.675l.627.413.764-1.163h-1.39v.75Zm-.491 0v-.75h-.316l-.22.226.536.524ZM8.232 55.587c-2.209 0-4.248-.299-6.088-1.104l-.602 1.374c2.091.915 4.352 1.23 6.69 1.23v-1.5Zm-5.646-.516-.123-.921-1.486.198.122.921 1.487-.198Zm-1.183-.143c1.956.913 4.586 1.422 6.767 1.422v-1.5c-1.995 0-4.403-.474-6.133-1.281l-.634 1.36ZM8.17 56.35c6.92 0 12.989-2.861 18.872-7.292 5.87-4.42 11.63-10.46 17.908-16.891l-1.073-1.048c-6.315 6.468-11.981 12.407-17.737 16.74-5.742 4.324-11.498 6.991-17.97 6.991v1.5Zm36.78-24.183 5.405-5.529-1.072-1.048-5.406 5.528 1.072 1.05Zm4.869-6.803h-7.863v1.5h7.863v-1.5Zm-7.305 1.252.552-.614-1.114-1.004-.553.614 1.115 1.004Zm-.005-.366h7.924v-1.5H42.51v1.5Zm8.46-.225L72.101 4.463l-1.072-1.05-21.131 21.562 1.071 1.05ZM71.565 4.688h.983v-1.5h-.983v1.5Zm.983 0c2.181 0 3.924-.572 4.87-1.675l-1.14-.976c-.529.618-1.735 1.151-3.73 1.151v1.5Zm4.3-1.413h.921v-1.5h-.921v1.5Zm.287-1.15L57.171 33.761l1.268.8L78.403 2.927l-1.268-.8ZM57.167 33.767c-2.226 3.598-3.692 5.845-4.584 7.428-.904 1.603-1.302 2.662-1.302 3.9h1.5c0-.849.246-1.633 1.108-3.163.874-1.55 2.295-3.726 4.554-7.376l-1.276-.79Zm-5.886 11.329c0 .865.27 1.594.86 2.088.565.472 1.305.627 2.04.627v-1.5c-.555 0-.89-.121-1.078-.278-.163-.136-.322-.39-.322-.937h-1.5Zm2.9 2.715c1.997 0 3.726-.99 5.424-2.656 1.689-1.657 3.431-4.066 5.456-7.073l-1.244-.838c-2.03 3.013-3.696 5.303-5.263 6.84-1.558 1.53-2.93 2.227-4.373 2.227v1.5Zm10.879-9.727 1.167-1.72-1.241-.842-1.167 1.72 1.24.842Zm.996-1.541c.036-.027.005.011-.096.011a.444.444 0 0 1-.363-.196l1.248-.831a1.051 1.051 0 0 0-.885-.473c-.317 0-.594.131-.804.289l.9 1.2Zm-.456-1.021-1.167 1.72 1.241.842 1.167-1.72-1.241-.842Zm-1.166 1.718c-2.064 3.02-3.793 5.448-5.47 7.126-1.67 1.67-3.195 2.498-4.845 2.498v1.5c2.22 0 4.105-1.137 5.906-2.938 1.793-1.793 3.597-4.34 5.648-7.34l-1.239-.846ZM54.12 46.864c-1.202 0-1.91-.562-2.355-1.325-.47-.806-.642-1.844-.642-2.655h-1.5c0 .97.197 2.298.847 3.411.676 1.157 1.842 2.07 3.65 2.07v-1.5Zm-2.997-3.98c0-2.963 1.182-6.676 6.142-14.207l-1.253-.825c-4.992 7.58-6.39 11.607-6.39 15.032h1.5Zm6.142-14.208 1.413-2.15-1.253-.824-1.413 2.15 1.253.824Zm.786-3.312h-7.31v1.5h7.31v-1.5Zm-7.845.225-5.898 6.02 1.072 1.05 5.897-6.02-1.071-1.05Zm-5.897 6.02c-6.436 6.559-12.226 12.56-18.06 16.933-5.82 4.364-11.607 7.045-18.016 7.045v1.5c6.859 0 12.959-2.878 18.916-7.345 5.946-4.457 11.828-10.557 18.23-17.083l-1.07-1.05Zm7.047-5.36h7.126v-1.5h-7.126v1.5Zm7.752-.337L72.806 5.088l-1.253-.825-13.699 20.825 1.253.824ZM72.18 3.925h-.491v1.5h.491v-1.5Zm-1.028.226L50.818 24.976l1.073 1.048L72.224 5.199l-1.073-1.048Zm4.785 28.475.748-.066-.188-2.126-1.184 1.776.624.416Zm-.982 1.474-.624-.416-.007.01.63.406Zm-3.133 4.853.629.408v-.001l-.63-.407ZM66.599 47v.75h.408l.221-.342L66.6 47Zm-4.3 0-.633-.401-.73 1.151H62.3V47Zm8.907-14.067-.63-.408-.003.007.633.4Zm-2.395-6.266-.728-.182-.233.932h.96v-.75Zm.307-.553v-.75h-.31l-.22.22.53.53Zm5.221 7.679h-.75v.75h.75v-.75Zm.123 0v.75h.413l.22-.349-.633-.401Zm1.597-2.519.634.402.073-.115.027-.133-.734-.154Zm7.74-5.713.64.393.701-1.143H83.8v.75Zm-2.15 3.502v.75h.42l.22-.358-.64-.392Zm-4.054 0v-.75h-.383l-.225.31.608.44Zm6.573 6.695.711-.237-.17-.513h-.541v.75Zm-.369.615v.75h.177l.159-.08-.336-.67Zm-.675-.75c-2.453 0-4.051-.407-5.032-.986-.945-.558-1.338-1.284-1.408-2.077l-1.495.131c.115 1.296.796 2.444 2.14 3.237 1.307.772 3.21 1.195 5.795 1.195v-1.5Zm-7.812-3.413-.982 1.474 1.248.832.983-1.474-1.249-.832Zm-.989 1.483-3.132 4.853 1.26.814 3.133-4.853-1.26-.814Zm-3.131 4.852-5.222 8.047 1.258.816 5.222-8.047-1.258-.816Zm-4.593 7.705h-4.3v1.5h4.3v-1.5Zm-3.666 1.151 8.907-14.067-1.267-.803L61.666 46.6l1.267.802Zm8.903-14.06c.68-1.05 1.238-1.974 1.628-2.787.386-.803.642-1.57.642-2.29h-1.5c0 .386-.142.91-.494 1.641-.347.723-.863 1.581-1.535 2.62l1.26.815Zm2.27-5.077c0-.605-.122-1.274-.67-1.755-.518-.453-1.258-.592-2.107-.592v1.5c.748 0 1.023.137 1.119.221.066.058.159.187.159.626h1.5Zm-2.777-2.347h-2.518v1.5h2.518v-1.5Zm-1.79.932a.44.44 0 0 1 .11-.205l-1.061-1.06c-.21.21-.407.51-.505.901l1.455.364Zm-.421.015h2.457v-1.5h-2.457v1.5Zm2.457 0c.856 0 1.292.194 1.54.468.266.293.474.845.474 1.915h1.5c0-1.203-.222-2.217-.862-2.923-.658-.724-1.603-.96-2.652-.96v1.5Zm2.014 2.383v4.546h1.5v-4.546h-1.5Zm.75 5.296h.123v-1.5h-.123v1.5Zm.757-.349 1.597-2.518-1.267-.803-1.597 2.518 1.267.803Zm1.697-2.766c.247-1.176.929-2.482 1.877-3.486.952-1.008 2.089-1.63 3.225-1.63v-1.5c-1.69 0-3.194.912-4.316 2.1-1.124 1.192-1.947 2.743-2.254 4.209l1.468.307Zm5.102-5.117H83.8v-1.5h-1.904v1.5Zm1.265-1.142-2.15 3.501 1.278.785 2.15-3.501-1.278-.785Zm-1.51 3.144h-4.055v1.5h4.054v-1.5Zm-4.663.31c-.901 1.248-1.186 2.39-1.186 3.695h1.5c0-1.028.206-1.853.902-2.816l-1.216-.878Zm-1.186 3.695c0 .715.162 1.375.528 1.951.365.574.9 1.013 1.564 1.34 1.298.64 3.179.9 5.6.9v-1.5c-2.372 0-3.962-.264-4.936-.745-.473-.233-.775-.504-.963-.8-.186-.293-.293-.662-.293-1.146h-1.5Zm7.691 4.19h.676v-1.5h-.676v1.5Zm-.035-.512a.46.46 0 0 1-.019-.242.236.236 0 0 1 .018-.051l-.002.002a.061.061 0 0 1-.005.005c-.004.004 0 0 .015-.008l.67 1.342c.269-.134.476-.35.608-.57.114-.19.27-.554.137-.953l-1.422.475Zm.342-.373h-.675v1.5h.675v-1.5Zm2.096-4.165-.628-.41-.003.004.63.406Zm6.573-10.074.628.41.226-.348-.173-.376-.681.314Zm-.369-.799.681-.314-.201-.436h-.48v.75Zm-3.194 0-.592-.46-.942 1.21h1.534v-.75Zm.43-.552v-.75h-.367l-.225.29.592.46Zm3.993 0v.75h.409l.221-.344-.63-.406Zm3.44-5.345v-.75h-.41l-.221.344.63.406Zm4.545-1.72v-.75h-.36l-.225.282.585.468Zm.738 0 .633.402.731-1.152h-1.364v.75Zm-4.485 7.065-.633-.402-.731 1.152h1.364v-.75Zm6.88 0 .592.46.942-1.21h-1.534v.75Zm-.43.552v.75h.367l.225-.29-.592-.46Zm-6.818 0v-.75h-.412l-.221.348.633.402ZM87.43 35.944l-.632-.403-.002.003.634.4Zm6.942 2.273.628.41.001-.002-.63-.408Zm1.474-2.273-.335-.671-.183.091-.111.172.63.408Zm.614 0 .627.412.336-.51-.432-.433-.53.53Zm-1.535 2.334-.627-.412.627.412ZM84.728 46.68c-.769 0-1.364-.225-1.783-.709-.436-.502-.785-1.401-.785-2.964h-1.5c0 1.755.389 3.067 1.151 3.947.779.898 1.842 1.226 2.917 1.226v-1.5Zm-2.568-3.673c0-3.938 1.48-6.662 4.365-11.143l-1.26-.812c-2.89 4.488-4.605 7.54-4.605 11.955h1.5Zm4.363-11.139 6.573-10.074-1.257-.82-6.572 10.075 1.256.82Zm6.626-10.798-.369-.799-1.362.629.369.798 1.362-.628Zm-1.05-1.235h-3.194v1.5h3.194v-1.5Zm-2.602 1.21.43-.552-1.184-.92-.43.552 1.184.92Zm-.162-.262h3.993v-1.5h-3.993v1.5Zm4.623-.344 3.44-5.345-1.261-.812-3.44 5.345 1.261.812Zm2.81-5c2.2 0 3.946-.521 5.131-2.002l-1.171-.937c-.781.976-1.983 1.438-3.96 1.438v1.5Zm4.545-1.72h.738v-1.5h-.738v1.5Zm.104-1.153-4.484 7.065 1.266.804 4.485-7.065-1.267-.804Zm-3.85 8.217h6.879v-1.5h-6.88v1.5Zm6.287-1.21-.43.552 1.184.92.43-.552-1.184-.92Zm.162.262h-6.818v1.5h6.818v-1.5Zm-7.451.348L86.798 35.54l1.265.805 9.767-15.357-1.265-.805Zm-9.77 15.36c-1.553 2.468-2.726 4.267-3.501 5.684-.776 1.419-1.22 2.57-1.22 3.746h1.5c0-.79.292-1.666 1.036-3.026.746-1.364 1.876-3.096 3.455-5.605l-1.27-.799Zm-4.722 9.43c0 .751.179 1.466.717 1.979.529.505 1.264.675 2.06.675v-1.5c-.616 0-.895-.136-1.025-.261-.123-.117-.252-.355-.252-.893h-1.5Zm2.777 2.654c1.883 0 3.728-1.252 5.381-2.89 1.684-1.667 3.315-3.883 4.769-6.111l-1.256-.82c-1.433 2.195-2.996 4.309-4.569 5.866-1.602 1.588-3.074 2.455-4.325 2.455v1.5Zm10.151-9.003 1.474-2.273-1.258-.816-1.474 2.273 1.258.816Zm1.18-2.01c.04-.02.048-.013.018-.013a.4.4 0 0 1-.269-.128l1.06-1.06a1.108 1.108 0 0 0-.79-.312c-.245 0-.482.067-.69.17l.672 1.343Zm-.347-1.083-1.536 2.334 1.253.824 1.536-2.334-1.253-.824Zm-1.536 2.334c-1.47 2.235-3.063 4.47-4.727 6.141-1.684 1.692-3.311 2.674-4.843 2.674v1.5c2.153 0 4.15-1.352 5.906-3.116 1.777-1.784 3.439-4.126 4.918-6.375l-1.254-.824Zm1.184-2.107v-.75h-.4l-.224.334.624.416Zm2.642 0 .67.336.543-1.086h-1.213v.75Zm-.246.492.45.6.142-.106.079-.159-.67-.335Zm-3.931 3.44-.546-.515-.076.08-.05.1.672.335Zm8.477-3.194-.744-.095v.002l.744.093Zm2.15-8.478.619.424.001-.001-.62-.423Zm7.126-2.273.655.365.45-.81-.885-.271-.22.716Zm-1.229 2.212-.443.605.686.503.413-.744-.656-.364Zm-5.221 2.58.749-.039-.001-.01-.748.049Zm.307 5.959.75-.017-.001-.011v-.011l-.749.039ZM98.062 46.68c-1.456 0-2.578-.419-3.33-1.114-.743-.688-1.202-1.72-1.202-3.112h-1.5c0 1.74.585 3.197 1.684 4.213 1.091 1.01 2.61 1.513 4.349 1.513v-1.5Zm-4.532-4.226c0-2.2 1.213-4.235 2.576-6.28l-1.248-.832c-1.34 2.01-2.828 4.399-2.828 7.112h1.5Zm1.953-5.946h2.64v-1.5h-2.64v1.5Zm1.97-1.085-.246.491 1.342.671.246-.491-1.342-.67Zm-.025.227c-1.748 1.31-2.948 2.383-4.026 3.525l1.09 1.03c1.01-1.07 2.144-2.086 3.836-3.355l-.9-1.2Zm-4.152 3.705c-.492.983-.694 2.085-.694 3.1h1.5c0-.83.167-1.693.536-2.43l-1.342-.67Zm-.694 3.1c0 1.227.323 2.428 1.023 3.342.716.936 1.795 1.523 3.167 1.523v-1.5c-.9 0-1.54-.365-1.976-.934-.453-.591-.714-1.448-.714-2.432h-1.5Zm4.19 4.865c2.282 0 3.737-1.625 4.659-3.631.926-2.013 1.428-4.627 1.737-7.1l-1.488-.186c-.305 2.44-.786 4.864-1.611 6.66-.83 1.802-1.893 2.757-3.297 2.757v1.5Zm6.396-10.73c.189-1.481.321-2.961.606-4.394.283-1.421.702-2.706 1.419-3.754l-1.238-.847c-.88 1.287-1.352 2.797-1.652 4.308-.299 1.501-.444 3.092-.623 4.498l1.488.19Zm2.026-8.15c.822-1.205 2.088-2.252 4.171-2.252v-1.5c-2.707 0-4.39 1.41-5.411 2.908l1.24.845Zm4.171-2.252c.523 0 1.42.06 2.114.274l.441-1.433c-.902-.278-1.971-.34-2.555-.34v1.5Zm1.679-.807-1.228 2.212 1.311.728 1.228-2.211-1.311-.729Zm-.129 1.971c-.423-.31-.958-.738-1.518-1.064-.578-.337-1.263-.617-2.059-.617v1.5c.433 0 .854.15 1.305.413.468.273.886.612 1.385.978l.887-1.21Zm-3.577-1.68c-.49 0-.96.103-1.379.348-.42.245-.742.608-.975 1.052-.449.86-.578 2.058-.483 3.514l1.497-.098c-.089-1.37.059-2.23.316-2.721.12-.231.259-.368.403-.453.146-.085.344-.143.621-.143v-1.5Zm-2.837 4.904.307 5.958 1.498-.077-.307-5.959-1.498.078Zm.306 5.936c.09 4.069-.826 6.598-2.096 8.1-1.259 1.489-2.95 2.068-4.648 2.068v1.5c2.049 0 4.196-.71 5.794-2.6 1.586-1.877 2.544-4.815 2.45-9.1l-1.5.032Z" mask="url(#b)"/>
    <mask id="c" width="113" height="57" x=".75" y="1" fill="#000" maskUnits="userSpaceOnUse">
      <path fill="#fff" d="M.75 1h113v57H.75z"/>
      <path d="M8.232 56.337c-2.273 0-4.423-.307-6.39-1.167l-.122-.921c1.843.86 4.362 1.351 6.45 1.351 13.392 0 23.65-11.057 36.243-23.957l5.406-5.529h-7.863l.553-.614h7.924L71.565 3.938h.983c2.088 0 3.563-.553 4.3-1.413h.921L57.805 34.161c-4.484 7.249-5.774 8.846-5.774 10.935 0 1.413.86 1.965 2.15 1.965 3.44 0 6.204-3.378 10.258-9.398l1.167-1.72c.246-.184.492-.184.615 0l-1.168 1.72c-4.115 6.02-7.064 9.951-10.934 9.951-3.01 0-3.747-2.948-3.747-4.73 0-3.194 1.29-7.064 6.266-14.62l1.413-2.15h-7.31l-5.898 6.02C32.005 45.22 21.5 56.337 8.232 56.337ZM51.355 25.5h7.126L72.178 4.675h-.491L51.355 25.5Zm31.769 10.873c-5.037 0-7.003-1.659-7.188-3.747l-.982 1.474-3.133 4.853L66.599 47h-4.3l8.907-14.067c1.352-2.089 2.15-3.563 2.15-4.669 0-1.044-.43-1.597-2.027-1.597h-2.518c.061-.246.184-.43.307-.553h2.457c1.904 0 2.764.86 2.764 3.133v4.546h.123l1.597-2.519c.553-2.641 3.01-5.713 5.836-5.713H83.8l-2.15 3.502h-4.054c-.799 1.105-1.044 2.088-1.044 3.255 0 2.396 2.15 3.44 6.941 3.44h.676c.061.185-.123.492-.369.615h-.675Zm1.604 11.057c-1.843 0-3.318-1.106-3.318-4.423 0-4.177 1.597-7.064 4.485-11.549l6.573-10.074-.369-.799h-3.194l.43-.552h3.993l3.44-5.345c2.088 0 3.563-.491 4.545-1.72h.738l-4.485 7.065h6.88l-.43.552h-6.818L87.43 35.944c-3.132 4.976-4.607 7.064-4.607 9.03 0 1.29.615 1.904 2.027 1.904 3.133 0 6.635-4.239 9.522-8.661l1.474-2.273c.246-.123.492-.123.614 0l-1.535 2.334c-2.949 4.484-6.512 9.153-10.197 9.153Zm13.335 0c-3.195 0-5.283-1.843-5.283-4.976 0-2.457 1.351-4.668 2.703-6.696h2.64l-.245.492c-1.72 1.29-2.887 2.334-3.931 3.44-.43.86-.615 1.843-.615 2.764 0 2.212 1.168 4.116 3.44 4.116 3.686 0 5.038-5.16 5.652-10.074.369-2.888.553-6.143 2.15-8.478.921-1.351 2.396-2.58 4.791-2.58.553 0 1.536.062 2.335.308l-1.229 2.211c-.921-.676-1.904-1.536-3.133-1.536-1.535 0-2.273 1.29-2.088 4.116l.307 5.959c.184 8.354-3.747 10.934-7.495 10.934Z"/>
    </mask>
    <path fill="#FB4E2B" d="M8.232 56.337c-2.273 0-4.423-.307-6.39-1.167l-.122-.921c1.843.86 4.362 1.351 6.45 1.351 13.392 0 23.65-11.057 36.243-23.957l5.406-5.529h-7.863l.553-.614h7.924L71.565 3.938h.983c2.088 0 3.563-.553 4.3-1.413h.921L57.805 34.161c-4.484 7.249-5.774 8.846-5.774 10.935 0 1.413.86 1.965 2.15 1.965 3.44 0 6.204-3.378 10.258-9.398l1.167-1.72c.246-.184.492-.184.615 0l-1.168 1.72c-4.115 6.02-7.064 9.951-10.934 9.951-3.01 0-3.747-2.948-3.747-4.73 0-3.194 1.29-7.064 6.266-14.62l1.413-2.15h-7.31l-5.898 6.02C32.005 45.22 21.5 56.337 8.232 56.337ZM51.355 25.5h7.126L72.178 4.675h-.491L51.355 25.5Zm31.769 10.873c-5.037 0-7.003-1.659-7.188-3.747l-.982 1.474-3.133 4.853L66.599 47h-4.3l8.907-14.067c1.352-2.089 2.15-3.563 2.15-4.669 0-1.044-.43-1.597-2.027-1.597h-2.518c.061-.246.184-.43.307-.553h2.457c1.904 0 2.764.86 2.764 3.133v4.546h.123l1.597-2.519c.553-2.641 3.01-5.713 5.836-5.713H83.8l-2.15 3.502h-4.054c-.799 1.105-1.044 2.088-1.044 3.255 0 2.396 2.15 3.44 6.941 3.44h.676c.061.185-.123.492-.369.615h-.675Zm1.604 11.057c-1.843 0-3.318-1.106-3.318-4.423 0-4.177 1.597-7.064 4.485-11.549l6.573-10.074-.369-.799h-3.194l.43-.552h3.993l3.44-5.345c2.088 0 3.563-.491 4.545-1.72h.738l-4.485 7.065h6.88l-.43.552h-6.818L87.43 35.944c-3.132 4.976-4.607 7.064-4.607 9.03 0 1.29.615 1.904 2.027 1.904 3.133 0 6.635-4.239 9.522-8.661l1.474-2.273c.246-.123.492-.123.614 0l-1.535 2.334c-2.949 4.484-6.512 9.153-10.197 9.153Zm13.335 0c-3.195 0-5.283-1.843-5.283-4.976 0-2.457 1.351-4.668 2.703-6.696h2.64l-.245.492c-1.72 1.29-2.887 2.334-3.931 3.44-.43.86-.615 1.843-.615 2.764 0 2.212 1.168 4.116 3.44 4.116 3.686 0 5.038-5.16 5.652-10.074.369-2.888.553-6.143 2.15-8.478.921-1.351 2.396-2.58 4.791-2.58.553 0 1.536.062 2.335.308l-1.229 2.211c-.921-.676-1.904-1.536-3.133-1.536-1.535 0-2.273 1.29-2.088 4.116l.307 5.959c.184 8.354-3.747 10.934-7.495 10.934Z"/>
    <path fill="#000" d="m1.843 55.17-.744.1.056.418.387.17.3-.688Zm-.123-.921.317-.68-1.241-.58.18 1.359.744-.1Zm42.693-22.606-.536-.525.536.525Zm5.406-5.529.536.524 1.246-1.274H49.82v.75Zm-7.863 0-.557-.502-1.127 1.252h1.684v-.75Zm.553-.614v-.75h-.334l-.223.248.557.502Zm7.924 0v.75h.315l.221-.225-.536-.525ZM71.565 3.938v-.75h-.315l-.22.225.535.525Zm5.283-1.413v-.75h-.345l-.225.262.57.488Zm.921 0 .634.4.726-1.15h-1.36v.75ZM57.805 34.161l-.635-.4-.003.006.638.394Zm6.634 3.502-.62-.421-.002.002.622.419Zm1.167-1.72-.45-.6-.1.075-.07.104.62.42Zm.615 0 .62.42.284-.416-.28-.42-.624.416Zm-1.168 1.72.62.423.001-.002-.62-.421Zm-8.415-9.399.626.413v-.001l-.626-.412Zm1.413-2.15.626.412.764-1.162h-1.39v.75Zm-7.31 0v-.75h-.316l-.22.225.535.525Zm-5.898 6.02.536.525-.536-.525Zm6.512-6.634-.537-.524-1.244 1.274h1.78v-.75Zm7.126 0v.75h.404l.222-.338-.627-.412ZM72.178 4.675l.627.413.764-1.163h-1.39v.75Zm-.491 0v-.75h-.316l-.22.226.536.524ZM8.232 55.587c-2.209 0-4.248-.299-6.088-1.104l-.602 1.374c2.091.915 4.352 1.23 6.69 1.23v-1.5Zm-5.646-.516-.123-.921-1.486.198.122.921 1.487-.198Zm-1.183-.143c1.956.913 4.586 1.422 6.767 1.422v-1.5c-1.995 0-4.403-.474-6.133-1.281l-.634 1.36ZM8.17 56.35c6.92 0 12.989-2.861 18.872-7.292 5.87-4.42 11.63-10.46 17.908-16.891l-1.073-1.048c-6.315 6.468-11.981 12.407-17.737 16.74-5.742 4.324-11.498 6.991-17.97 6.991v1.5Zm36.78-24.183 5.405-5.529-1.072-1.048-5.406 5.528 1.072 1.05Zm4.869-6.803h-7.863v1.5h7.863v-1.5Zm-7.305 1.252.552-.614-1.114-1.004-.553.614 1.115 1.004Zm-.005-.366h7.924v-1.5H42.51v1.5Zm8.46-.225L72.101 4.463l-1.072-1.05-21.131 21.562 1.071 1.05ZM71.565 4.688h.983v-1.5h-.983v1.5Zm.983 0c2.181 0 3.924-.572 4.87-1.675l-1.14-.976c-.529.618-1.735 1.151-3.73 1.151v1.5Zm4.3-1.413h.921v-1.5h-.921v1.5Zm.287-1.15L57.171 33.761l1.268.8L78.403 2.927l-1.268-.8ZM57.167 33.767c-2.226 3.598-3.692 5.845-4.584 7.428-.904 1.603-1.302 2.662-1.302 3.9h1.5c0-.849.246-1.633 1.108-3.163.874-1.55 2.295-3.726 4.554-7.376l-1.276-.79Zm-5.886 11.329c0 .865.27 1.594.86 2.088.565.472 1.305.627 2.04.627v-1.5c-.555 0-.89-.121-1.078-.278-.163-.136-.322-.39-.322-.937h-1.5Zm2.9 2.715c1.997 0 3.726-.99 5.424-2.656 1.689-1.657 3.431-4.066 5.456-7.073l-1.244-.838c-2.03 3.013-3.696 5.303-5.263 6.84-1.558 1.53-2.93 2.227-4.373 2.227v1.5Zm10.879-9.727 1.167-1.72-1.241-.842-1.167 1.72 1.24.842Zm.996-1.541c.036-.027.005.011-.096.011a.444.444 0 0 1-.363-.196l1.248-.831a1.051 1.051 0 0 0-.885-.473c-.317 0-.594.131-.804.289l.9 1.2Zm-.456-1.021-1.167 1.72 1.241.842 1.167-1.72-1.241-.842Zm-1.166 1.718c-2.064 3.02-3.793 5.448-5.47 7.126-1.67 1.67-3.195 2.498-4.845 2.498v1.5c2.22 0 4.105-1.137 5.906-2.938 1.793-1.793 3.597-4.34 5.648-7.34l-1.239-.846ZM54.12 46.864c-1.202 0-1.91-.562-2.355-1.325-.47-.806-.642-1.844-.642-2.655h-1.5c0 .97.197 2.298.847 3.411.676 1.157 1.842 2.07 3.65 2.07v-1.5Zm-2.997-3.98c0-2.963 1.182-6.676 6.142-14.207l-1.253-.825c-4.992 7.58-6.39 11.607-6.39 15.032h1.5Zm6.142-14.208 1.413-2.15-1.253-.824-1.413 2.15 1.253.824Zm.786-3.312h-7.31v1.5h7.31v-1.5Zm-7.845.225-5.898 6.02 1.072 1.05 5.897-6.02-1.071-1.05Zm-5.897 6.02c-6.436 6.559-12.226 12.56-18.06 16.933-5.82 4.364-11.607 7.045-18.016 7.045v1.5c6.859 0 12.959-2.878 18.916-7.345 5.946-4.457 11.828-10.557 18.23-17.083l-1.07-1.05Zm7.047-5.36h7.126v-1.5h-7.126v1.5Zm7.752-.337L72.806 5.088l-1.253-.825-13.699 20.825 1.253.824ZM72.18 3.925h-.491v1.5h.491v-1.5Zm-1.028.226L50.818 24.976l1.073 1.048L72.224 5.199l-1.073-1.048Zm4.785 28.475.748-.066-.188-2.126-1.184 1.776.624.416Zm-.982 1.474-.624-.416-.007.01.63.406Zm-3.133 4.853.629.408v-.001l-.63-.407ZM66.599 47v.75h.408l.221-.342L66.6 47Zm-4.3 0-.633-.401-.73 1.151H62.3V47Zm8.907-14.067-.63-.408-.003.007.633.4Zm-2.395-6.266-.728-.182-.233.932h.96v-.75Zm.307-.553v-.75h-.31l-.22.22.53.53Zm5.221 7.679h-.75v.75h.75v-.75Zm.123 0v.75h.413l.22-.349-.633-.401Zm1.597-2.519.634.402.073-.115.027-.133-.734-.154Zm7.74-5.713.64.393.701-1.143H83.8v.75Zm-2.15 3.502v.75h.42l.22-.358-.64-.392Zm-4.054 0v-.75h-.383l-.225.31.608.44Zm6.573 6.695.711-.237-.17-.513h-.541v.75Zm-.369.615v.75h.177l.159-.08-.336-.67Zm-.675-.75c-2.453 0-4.051-.407-5.032-.986-.945-.558-1.338-1.284-1.408-2.077l-1.495.131c.115 1.296.796 2.444 2.14 3.237 1.307.772 3.21 1.195 5.795 1.195v-1.5Zm-7.812-3.413-.982 1.474 1.248.832.983-1.474-1.249-.832Zm-.989 1.483-3.132 4.853 1.26.814 3.133-4.853-1.26-.814Zm-3.131 4.852-5.222 8.047 1.258.816 5.222-8.047-1.258-.816Zm-4.593 7.705h-4.3v1.5h4.3v-1.5Zm-3.666 1.151 8.907-14.067-1.267-.803L61.666 46.6l1.267.802Zm8.903-14.06c.68-1.05 1.238-1.974 1.628-2.787.386-.803.642-1.57.642-2.29h-1.5c0 .386-.142.91-.494 1.641-.347.723-.863 1.581-1.535 2.62l1.26.815Zm2.27-5.077c0-.605-.122-1.274-.67-1.755-.518-.453-1.258-.592-2.107-.592v1.5c.748 0 1.023.137 1.119.221.066.058.159.187.159.626h1.5Zm-2.777-2.347h-2.518v1.5h2.518v-1.5Zm-1.79.932a.44.44 0 0 1 .11-.205l-1.061-1.06c-.21.21-.407.51-.505.901l1.455.364Zm-.421.015h2.457v-1.5h-2.457v1.5Zm2.457 0c.856 0 1.292.194 1.54.468.266.293.474.845.474 1.915h1.5c0-1.203-.222-2.217-.862-2.923-.658-.724-1.603-.96-2.652-.96v1.5Zm2.014 2.383v4.546h1.5v-4.546h-1.5Zm.75 5.296h.123v-1.5h-.123v1.5Zm.757-.349 1.597-2.518-1.267-.803-1.597 2.518 1.267.803Zm1.697-2.766c.247-1.176.929-2.482 1.877-3.486.952-1.008 2.089-1.63 3.225-1.63v-1.5c-1.69 0-3.194.912-4.316 2.1-1.124 1.192-1.947 2.743-2.254 4.209l1.468.307Zm5.102-5.117H83.8v-1.5h-1.904v1.5Zm1.265-1.142-2.15 3.501 1.278.785 2.15-3.501-1.278-.785Zm-1.51 3.144h-4.055v1.5h4.054v-1.5Zm-4.663.31c-.901 1.248-1.186 2.39-1.186 3.695h1.5c0-1.028.206-1.853.902-2.816l-1.216-.878Zm-1.186 3.695c0 .715.162 1.375.528 1.951.365.574.9 1.013 1.564 1.34 1.298.64 3.179.9 5.6.9v-1.5c-2.372 0-3.962-.264-4.936-.745-.473-.233-.775-.504-.963-.8-.186-.293-.293-.662-.293-1.146h-1.5Zm7.691 4.19h.676v-1.5h-.676v1.5Zm-.035-.512a.46.46 0 0 1-.019-.242.236.236 0 0 1 .018-.051l-.002.002a.061.061 0 0 1-.005.005c-.004.004 0 0 .015-.008l.67 1.342c.269-.134.476-.35.608-.57.114-.19.27-.554.137-.953l-1.422.475Zm.342-.373h-.675v1.5h.675v-1.5Zm2.096-4.165-.628-.41-.003.004.63.406Zm6.573-10.074.628.41.226-.348-.173-.376-.681.314Zm-.369-.799.681-.314-.201-.436h-.48v.75Zm-3.194 0-.592-.46-.942 1.21h1.534v-.75Zm.43-.552v-.75h-.367l-.225.29.592.46Zm3.993 0v.75h.409l.221-.344-.63-.406Zm3.44-5.345v-.75h-.41l-.221.344.63.406Zm4.545-1.72v-.75h-.36l-.225.282.585.468Zm.738 0 .633.402.731-1.152h-1.364v.75Zm-4.485 7.065-.633-.402-.731 1.152h1.364v-.75Zm6.88 0 .592.46.942-1.21h-1.534v.75Zm-.43.552v.75h.367l.225-.29-.592-.46Zm-6.818 0v-.75h-.412l-.221.348.633.402ZM87.43 35.944l-.632-.403-.002.003.634.4Zm6.942 2.273.628.41.001-.002-.63-.408Zm1.474-2.273-.335-.671-.183.091-.111.172.63.408Zm.614 0 .627.412.336-.51-.432-.433-.53.53Zm-1.535 2.334-.627-.412.627.412ZM84.728 46.68c-.769 0-1.364-.225-1.783-.709-.436-.502-.785-1.401-.785-2.964h-1.5c0 1.755.389 3.067 1.151 3.947.779.898 1.842 1.226 2.917 1.226v-1.5Zm-2.568-3.673c0-3.938 1.48-6.662 4.365-11.143l-1.26-.812c-2.89 4.488-4.605 7.54-4.605 11.955h1.5Zm4.363-11.139 6.573-10.074-1.257-.82-6.572 10.075 1.256.82Zm6.626-10.798-.369-.799-1.362.629.369.798 1.362-.628Zm-1.05-1.235h-3.194v1.5h3.194v-1.5Zm-2.602 1.21.43-.552-1.184-.92-.43.552 1.184.92Zm-.162-.262h3.993v-1.5h-3.993v1.5Zm4.623-.344 3.44-5.345-1.261-.812-3.44 5.345 1.261.812Zm2.81-5c2.2 0 3.946-.521 5.131-2.002l-1.171-.937c-.781.976-1.983 1.438-3.96 1.438v1.5Zm4.545-1.72h.738v-1.5h-.738v1.5Zm.104-1.153-4.484 7.065 1.266.804 4.485-7.065-1.267-.804Zm-3.85 8.217h6.879v-1.5h-6.88v1.5Zm6.287-1.21-.43.552 1.184.92.43-.552-1.184-.92Zm.162.262h-6.818v1.5h6.818v-1.5Zm-7.451.348L86.798 35.54l1.265.805 9.767-15.357-1.265-.805Zm-9.77 15.36c-1.553 2.468-2.726 4.267-3.501 5.684-.776 1.419-1.22 2.57-1.22 3.746h1.5c0-.79.292-1.666 1.036-3.026.746-1.364 1.876-3.096 3.455-5.605l-1.27-.799Zm-4.722 9.43c0 .751.179 1.466.717 1.979.529.505 1.264.675 2.06.675v-1.5c-.616 0-.895-.136-1.025-.261-.123-.117-.252-.355-.252-.893h-1.5Zm2.777 2.654c1.883 0 3.728-1.252 5.381-2.89 1.684-1.667 3.315-3.883 4.769-6.111l-1.256-.82c-1.433 2.195-2.996 4.309-4.569 5.866-1.602 1.588-3.074 2.455-4.325 2.455v1.5Zm10.151-9.003 1.474-2.273-1.258-.816-1.474 2.273 1.258.816Zm1.18-2.01c.04-.02.048-.013.018-.013a.4.4 0 0 1-.269-.128l1.06-1.06a1.108 1.108 0 0 0-.79-.312c-.245 0-.482.067-.69.17l.672 1.343Zm-.347-1.083-1.536 2.334 1.253.824 1.536-2.334-1.253-.824Zm-1.536 2.334c-1.47 2.235-3.063 4.47-4.727 6.141-1.684 1.692-3.311 2.674-4.843 2.674v1.5c2.153 0 4.15-1.352 5.906-3.116 1.777-1.784 3.439-4.126 4.918-6.375l-1.254-.824Zm1.184-2.107v-.75h-.4l-.224.334.624.416Zm2.642 0 .67.336.543-1.086h-1.213v.75Zm-.246.492.45.6.142-.106.079-.159-.67-.335Zm-3.931 3.44-.546-.515-.076.08-.05.1.672.335Zm8.477-3.194-.744-.095v.002l.744.093Zm2.15-8.478.619.424.001-.001-.62-.423Zm7.126-2.273.655.365.45-.81-.885-.271-.22.716Zm-1.229 2.212-.443.605.686.503.413-.744-.656-.364Zm-5.221 2.58.749-.039-.001-.01-.748.049Zm.307 5.959.75-.017-.001-.011v-.011l-.749.039ZM98.062 46.68c-1.456 0-2.578-.419-3.33-1.114-.743-.688-1.202-1.72-1.202-3.112h-1.5c0 1.74.585 3.197 1.684 4.213 1.091 1.01 2.61 1.513 4.349 1.513v-1.5Zm-4.532-4.226c0-2.2 1.213-4.235 2.576-6.28l-1.248-.832c-1.34 2.01-2.828 4.399-2.828 7.112h1.5Zm1.953-5.946h2.64v-1.5h-2.64v1.5Zm1.97-1.085-.246.491 1.342.671.246-.491-1.342-.67Zm-.025.227c-1.748 1.31-2.948 2.383-4.026 3.525l1.09 1.03c1.01-1.07 2.144-2.086 3.836-3.355l-.9-1.2Zm-4.152 3.705c-.492.983-.694 2.085-.694 3.1h1.5c0-.83.167-1.693.536-2.43l-1.342-.67Zm-.694 3.1c0 1.227.323 2.428 1.023 3.342.716.936 1.795 1.523 3.167 1.523v-1.5c-.9 0-1.54-.365-1.976-.934-.453-.591-.714-1.448-.714-2.432h-1.5Zm4.19 4.865c2.282 0 3.737-1.625 4.659-3.631.926-2.013 1.428-4.627 1.737-7.1l-1.488-.186c-.305 2.44-.786 4.864-1.611 6.66-.83 1.802-1.893 2.757-3.297 2.757v1.5Zm6.396-10.73c.189-1.481.321-2.961.606-4.394.283-1.421.702-2.706 1.419-3.754l-1.238-.847c-.88 1.287-1.352 2.797-1.652 4.308-.299 1.501-.444 3.092-.623 4.498l1.488.19Zm2.026-8.15c.822-1.205 2.088-2.252 4.171-2.252v-1.5c-2.707 0-4.39 1.41-5.411 2.908l1.24.845Zm4.171-2.252c.523 0 1.42.06 2.114.274l.441-1.433c-.902-.278-1.971-.34-2.555-.34v1.5Zm1.679-.807-1.228 2.212 1.311.728 1.228-2.211-1.311-.729Zm-.129 1.971c-.423-.31-.958-.738-1.518-1.064-.578-.337-1.263-.617-2.059-.617v1.5c.433 0 .854.15 1.305.413.468.273.886.612 1.385.978l.887-1.21Zm-3.577-1.68c-.49 0-.96.103-1.379.348-.42.245-.742.608-.975 1.052-.449.86-.578 2.058-.483 3.514l1.497-.098c-.089-1.37.059-2.23.316-2.721.12-.231.259-.368.403-.453.146-.085.344-.143.621-.143v-1.5Zm-2.837 4.904.307 5.958 1.498-.077-.307-5.959-1.498.078Zm.306 5.936c.09 4.069-.826 6.598-2.096 8.1-1.259 1.489-2.95 2.068-4.648 2.068v1.5c2.049 0 4.196-.71 5.794-2.6 1.586-1.877 2.544-4.815 2.45-9.1l-1.5.032Z" mask="url(#c)"/>
    <path fill="#FFE5D5" d="M67.152 29.373c2.35.801 3.579 2.991 3.579 6.25v5.982c0 2.19.107 3.259.427 5.182V47h-4.54c-.32-2.03-.428-3.205-.428-5.395v-7.104c0-2.35-.8-3.312-2.67-3.312l2.67-.689c.124-.054.962-1.127.962-1.127Z"/>
    <mask id="d" width="9" height="15" x="63" y="9" maskUnits="userSpaceOnUse" style="mask-type:alpha">
      <path fill="#D9D9D9" d="m66.5 11.75-3 3V20l.75 3.75h1.5l6-.75v-6.75L68 9.5l-1.5 2.25Z"/>
    </mask>
    <g mask="url(#d)">
      <path fill="#FFE5D5" d="M57.375 9.608h6.143c4.487 0 7.211 2.671 7.211 7.853v5.555c0 3.258-1.228 5.395-3.579 6.196v.16c2.35.802 3.58 2.992 3.58 6.25v5.983c0 2.19.106 3.258.426 5.181V47h-4.54c-.32-2.03-.427-3.205-.427-5.395v-7.104c0-2.35-.801-3.312-2.671-3.312h-1.603V47h-4.54V9.608Zm4.54 3.686v14.209h1.603c1.87 0 2.67-1.015 2.67-3.365v-7.532c0-2.35-.8-3.312-2.67-3.312h-1.603Z"/>
    </g>
    <mask id="e" width="17" height="26" x="41" y="24" maskUnits="userSpaceOnUse" style="mask-type:alpha">
      <path fill="#D9D9D9" d="M57.5 24.5 41 41v9h16.5V24.5Z"/>
    </mask>
    <g mask="url(#e)">
      <path fill="#FFE5D5" d="M51.746 9.608 55.753 47h-4.54l-.695-9.134h-3.419L46.405 47h-4.54l4.059-37.392h5.822ZM47.42 34.18h2.777L49.13 20.025l-.214-3.793h-.213l-.214 3.793L47.42 34.18Z"/>
    </g>
    <mask id="f" width="9" height="22" x="79" y="28" maskUnits="userSpaceOnUse" style="mask-type:alpha">
      <path fill="#D9D9D9" d="m86.75 28.25-6 6L80 42.5l-.75 5.25 1.5.75 5.25.75 1.5-1.5v-19.5h-.75Z"/>
    </mask>
    <g mask="url(#f)">
      <path fill="#FFE5D5" d="M86.269 9.608V47h-4.54V30.174h-4.007V47h-4.54V9.608h4.54v16.88h4.006V9.608h4.54Z"/>
    </g>
    <mask id="g" width="6" height="5" x="62" y="33" maskUnits="userSpaceOnUse" style="mask-type:alpha">
      <path fill="#D9D9D9" d="M62.75 33.5h4.5V38h-4.5z"/>
    </mask>
    <g mask="url(#g)">
      <mask id="h" width="113" height="57" x=".75" y="1" fill="#000" maskUnits="userSpaceOnUse">
        <path fill="#fff" d="M.75 1h113v57H.75z"/>
        <path d="M8.232 56.337c-2.273 0-4.423-.307-6.39-1.167l-.122-.921c1.843.86 4.362 1.351 6.45 1.351 13.392 0 23.65-11.057 36.243-23.957l5.406-5.529h-7.863l.553-.614h7.924L71.565 3.938h.983c2.088 0 3.563-.553 4.3-1.413h.921L57.805 34.161c-4.484 7.249-5.774 8.846-5.774 10.935 0 1.413.86 1.965 2.15 1.965 3.44 0 6.204-3.378 10.258-9.398l1.167-1.72c.246-.184.492-.184.615 0l-1.168 1.72c-4.115 6.02-7.064 9.951-10.934 9.951-3.01 0-3.747-2.948-3.747-4.73 0-3.194 1.29-7.064 6.266-14.62l1.413-2.15h-7.31l-5.898 6.02C32.005 45.22 21.5 56.337 8.232 56.337ZM51.355 25.5h7.126L72.178 4.675h-.491L51.355 25.5Zm31.769 10.873c-5.037 0-7.003-1.659-7.188-3.747l-.982 1.474-3.133 4.853L66.599 47h-4.3l8.907-14.067c1.352-2.089 2.15-3.563 2.15-4.669 0-1.044-.43-1.597-2.027-1.597h-2.518c.061-.246.184-.43.307-.553h2.457c1.904 0 2.764.86 2.764 3.133v4.546h.123l1.597-2.519c.553-2.641 3.01-5.713 5.836-5.713H83.8l-2.15 3.502h-4.054c-.799 1.105-1.044 2.088-1.044 3.255 0 2.396 2.15 3.44 6.941 3.44h.676c.061.185-.123.492-.369.615h-.675Zm1.604 11.057c-1.843 0-3.318-1.106-3.318-4.423 0-4.177 1.597-7.064 4.485-11.549l6.573-10.074-.369-.799h-3.194l.43-.552h3.993l3.44-5.345c2.088 0 3.563-.491 4.545-1.72h.738l-4.485 7.065h6.88l-.43.552h-6.818L87.43 35.944c-3.132 4.976-4.607 7.064-4.607 9.03 0 1.29.615 1.904 2.027 1.904 3.133 0 6.635-4.239 9.522-8.661l1.474-2.273c.246-.123.492-.123.614 0l-1.535 2.334c-2.949 4.484-6.512 9.153-10.197 9.153Zm13.335 0c-3.195 0-5.283-1.843-5.283-4.976 0-2.457 1.351-4.668 2.703-6.696h2.64l-.245.492c-1.72 1.29-2.887 2.334-3.931 3.44-.43.86-.615 1.843-.615 2.764 0 2.212 1.168 4.116 3.44 4.116 3.686 0 5.038-5.16 5.652-10.074.369-2.888.553-6.143 2.15-8.478.921-1.351 2.396-2.58 4.791-2.58.553 0 1.536.062 2.335.308l-1.229 2.211c-.921-.676-1.904-1.536-3.133-1.536-1.535 0-2.273 1.29-2.088 4.116l.307 5.959c.184 8.354-3.747 10.934-7.495 10.934Z"/>
      </mask>
      <path fill="#FB4E2B" d="M8.232 56.337c-2.273 0-4.423-.307-6.39-1.167l-.122-.921c1.843.86 4.362 1.351 6.45 1.351 13.392 0 23.65-11.057 36.243-23.957l5.406-5.529h-7.863l.553-.614h7.924L71.565 3.938h.983c2.088 0 3.563-.553 4.3-1.413h.921L57.805 34.161c-4.484 7.249-5.774 8.846-5.774 10.935 0 1.413.86 1.965 2.15 1.965 3.44 0 6.204-3.378 10.258-9.398l1.167-1.72c.246-.184.492-.184.615 0l-1.168 1.72c-4.115 6.02-7.064 9.951-10.934 9.951-3.01 0-3.747-2.948-3.747-4.73 0-3.194 1.29-7.064 6.266-14.62l1.413-2.15h-7.31l-5.898 6.02C32.005 45.22 21.5 56.337 8.232 56.337ZM51.355 25.5h7.126L72.178 4.675h-.491L51.355 25.5Zm31.769 10.873c-5.037 0-7.003-1.659-7.188-3.747l-.982 1.474-3.133 4.853L66.599 47h-4.3l8.907-14.067c1.352-2.089 2.15-3.563 2.15-4.669 0-1.044-.43-1.597-2.027-1.597h-2.518c.061-.246.184-.43.307-.553h2.457c1.904 0 2.764.86 2.764 3.133v4.546h.123l1.597-2.519c.553-2.641 3.01-5.713 5.836-5.713H83.8l-2.15 3.502h-4.054c-.799 1.105-1.044 2.088-1.044 3.255 0 2.396 2.15 3.44 6.941 3.44h.676c.061.185-.123.492-.369.615h-.675Zm1.604 11.057c-1.843 0-3.318-1.106-3.318-4.423 0-4.177 1.597-7.064 4.485-11.549l6.573-10.074-.369-.799h-3.194l.43-.552h3.993l3.44-5.345c2.088 0 3.563-.491 4.545-1.72h.738l-4.485 7.065h6.88l-.43.552h-6.818L87.43 35.944c-3.132 4.976-4.607 7.064-4.607 9.03 0 1.29.615 1.904 2.027 1.904 3.133 0 6.635-4.239 9.522-8.661l1.474-2.273c.246-.123.492-.123.614 0l-1.535 2.334c-2.949 4.484-6.512 9.153-10.197 9.153Zm13.335 0c-3.195 0-5.283-1.843-5.283-4.976 0-2.457 1.351-4.668 2.703-6.696h2.64l-.245.492c-1.72 1.29-2.887 2.334-3.931 3.44-.43.86-.615 1.843-.615 2.764 0 2.212 1.168 4.116 3.44 4.116 3.686 0 5.038-5.16 5.652-10.074.369-2.888.553-6.143 2.15-8.478.921-1.351 2.396-2.58 4.791-2.58.553 0 1.536.062 2.335.308l-1.229 2.211c-.921-.676-1.904-1.536-3.133-1.536-1.535 0-2.273 1.29-2.088 4.116l.307 5.959c.184 8.354-3.747 10.934-7.495 10.934Z"/>
      <path fill="#000" d="m1.843 55.17-.744.1.056.418.387.17.3-.688Zm-.123-.921.317-.68-1.241-.58.18 1.359.744-.1Zm42.693-22.606-.536-.525.536.525Zm5.406-5.529.536.524 1.246-1.274H49.82v.75Zm-7.863 0-.557-.502-1.127 1.252h1.684v-.75Zm.553-.614v-.75h-.334l-.223.248.557.502Zm7.924 0v.75h.315l.221-.225-.536-.525ZM71.565 3.938v-.75h-.315l-.22.225.535.525Zm5.283-1.413v-.75h-.345l-.225.262.57.488Zm.921 0 .634.4.726-1.15h-1.36v.75ZM57.805 34.161l-.635-.4-.003.006.638.394Zm6.634 3.502-.62-.421-.002.002.622.419Zm1.167-1.72-.45-.6-.1.075-.07.104.62.42Zm.615 0 .62.42.284-.416-.28-.42-.624.416Zm-1.168 1.72.62.423.001-.002-.62-.421Zm-8.415-9.399.626.413v-.001l-.626-.412Zm1.413-2.15.626.412.764-1.162h-1.39v.75Zm-7.31 0v-.75h-.316l-.22.225.535.525Zm-5.898 6.02.536.525-.536-.525Zm6.512-6.634-.537-.524-1.244 1.274h1.78v-.75Zm7.126 0v.75h.404l.222-.338-.627-.412ZM72.178 4.675l.627.413.764-1.163h-1.39v.75Zm-.491 0v-.75h-.316l-.22.226.536.524ZM8.232 55.587c-2.209 0-4.248-.299-6.088-1.104l-.602 1.374c2.091.915 4.352 1.23 6.69 1.23v-1.5Zm-5.646-.516-.123-.921-1.486.198.122.921 1.487-.198Zm-1.183-.143c1.956.913 4.586 1.422 6.767 1.422v-1.5c-1.995 0-4.403-.474-6.133-1.281l-.634 1.36ZM8.17 56.35c6.92 0 12.989-2.861 18.872-7.292 5.87-4.42 11.63-10.46 17.908-16.891l-1.073-1.048c-6.315 6.468-11.981 12.407-17.737 16.74-5.742 4.324-11.498 6.991-17.97 6.991v1.5Zm36.78-24.183 5.405-5.529-1.072-1.048-5.406 5.528 1.072 1.05Zm4.869-6.803h-7.863v1.5h7.863v-1.5Zm-7.305 1.252.552-.614-1.114-1.004-.553.614 1.115 1.004Zm-.005-.366h7.924v-1.5H42.51v1.5Zm8.46-.225L72.101 4.463l-1.072-1.05-21.131 21.562 1.071 1.05ZM71.565 4.688h.983v-1.5h-.983v1.5Zm.983 0c2.181 0 3.924-.572 4.87-1.675l-1.14-.976c-.529.618-1.735 1.151-3.73 1.151v1.5Zm4.3-1.413h.921v-1.5h-.921v1.5Zm.287-1.15L57.171 33.761l1.268.8L78.403 2.927l-1.268-.8ZM57.167 33.767c-2.226 3.598-3.692 5.845-4.584 7.428-.904 1.603-1.302 2.662-1.302 3.9h1.5c0-.849.246-1.633 1.108-3.163.874-1.55 2.295-3.726 4.554-7.376l-1.276-.79Zm-5.886 11.329c0 .865.27 1.594.86 2.088.565.472 1.305.627 2.04.627v-1.5c-.555 0-.89-.121-1.078-.278-.163-.136-.322-.39-.322-.937h-1.5Zm2.9 2.715c1.997 0 3.726-.99 5.424-2.656 1.689-1.657 3.431-4.066 5.456-7.073l-1.244-.838c-2.03 3.013-3.696 5.303-5.263 6.84-1.558 1.53-2.93 2.227-4.373 2.227v1.5Zm10.879-9.727 1.167-1.72-1.241-.842-1.167 1.72 1.24.842Zm.996-1.541c.036-.027.005.011-.096.011a.444.444 0 0 1-.363-.196l1.248-.831a1.051 1.051 0 0 0-.885-.473c-.317 0-.594.131-.804.289l.9 1.2Zm-.456-1.021-1.167 1.72 1.241.842 1.167-1.72-1.241-.842Zm-1.166 1.718c-2.064 3.02-3.793 5.448-5.47 7.126-1.67 1.67-3.195 2.498-4.845 2.498v1.5c2.22 0 4.105-1.137 5.906-2.938 1.793-1.793 3.597-4.34 5.648-7.34l-1.239-.846ZM54.12 46.864c-1.202 0-1.91-.562-2.355-1.325-.47-.806-.642-1.844-.642-2.655h-1.5c0 .97.197 2.298.847 3.411.676 1.157 1.842 2.07 3.65 2.07v-1.5Zm-2.997-3.98c0-2.963 1.182-6.676 6.142-14.207l-1.253-.825c-4.992 7.58-6.39 11.607-6.39 15.032h1.5Zm6.142-14.208 1.413-2.15-1.253-.824-1.413 2.15 1.253.824Zm.786-3.312h-7.31v1.5h7.31v-1.5Zm-7.845.225-5.898 6.02 1.072 1.05 5.897-6.02-1.071-1.05Zm-5.897 6.02c-6.436 6.559-12.226 12.56-18.06 16.933-5.82 4.364-11.607 7.045-18.016 7.045v1.5c6.859 0 12.959-2.878 18.916-7.345 5.946-4.457 11.828-10.557 18.23-17.083l-1.07-1.05Zm7.047-5.36h7.126v-1.5h-7.126v1.5Zm7.752-.337L72.806 5.088l-1.253-.825-13.699 20.825 1.253.824ZM72.18 3.925h-.491v1.5h.491v-1.5Zm-1.028.226L50.818 24.976l1.073 1.048L72.224 5.199l-1.073-1.048Zm4.785 28.475.748-.066-.188-2.126-1.184 1.776.624.416Zm-.982 1.474-.624-.416-.007.01.63.406Zm-3.133 4.853.629.408v-.001l-.63-.407ZM66.599 47v.75h.408l.221-.342L66.6 47Zm-4.3 0-.633-.401-.73 1.151H62.3V47Zm8.907-14.067-.63-.408-.003.007.633.4Zm-2.395-6.266-.728-.182-.233.932h.96v-.75Zm.307-.553v-.75h-.31l-.22.22.53.53Zm5.221 7.679h-.75v.75h.75v-.75Zm.123 0v.75h.413l.22-.349-.633-.401Zm1.597-2.519.634.402.073-.115.027-.133-.734-.154Zm7.74-5.713.64.393.701-1.143H83.8v.75Zm-2.15 3.502v.75h.42l.22-.358-.64-.392Zm-4.054 0v-.75h-.383l-.225.31.608.44Zm6.573 6.695.711-.237-.17-.513h-.541v.75Zm-.369.615v.75h.177l.159-.08-.336-.67Zm-.675-.75c-2.453 0-4.051-.407-5.032-.986-.945-.558-1.338-1.284-1.408-2.077l-1.495.131c.115 1.296.796 2.444 2.14 3.237 1.307.772 3.21 1.195 5.795 1.195v-1.5Zm-7.812-3.413-.982 1.474 1.248.832.983-1.474-1.249-.832Zm-.989 1.483-3.132 4.853 1.26.814 3.133-4.853-1.26-.814Zm-3.131 4.852-5.222 8.047 1.258.816 5.222-8.047-1.258-.816Zm-4.593 7.705h-4.3v1.5h4.3v-1.5Zm-3.666 1.151 8.907-14.067-1.267-.803L61.666 46.6l1.267.802Zm8.903-14.06c.68-1.05 1.238-1.974 1.628-2.787.386-.803.642-1.57.642-2.29h-1.5c0 .386-.142.91-.494 1.641-.347.723-.863 1.581-1.535 2.62l1.26.815Zm2.27-5.077c0-.605-.122-1.274-.67-1.755-.518-.453-1.258-.592-2.107-.592v1.5c.748 0 1.023.137 1.119.221.066.058.159.187.159.626h1.5Zm-2.777-2.347h-2.518v1.5h2.518v-1.5Zm-1.79.932a.44.44 0 0 1 .11-.205l-1.061-1.06c-.21.21-.407.51-.505.901l1.455.364Zm-.421.015h2.457v-1.5h-2.457v1.5Zm2.457 0c.856 0 1.292.194 1.54.468.266.293.474.845.474 1.915h1.5c0-1.203-.222-2.217-.862-2.923-.658-.724-1.603-.96-2.652-.96v1.5Zm2.014 2.383v4.546h1.5v-4.546h-1.5Zm.75 5.296h.123v-1.5h-.123v1.5Zm.757-.349 1.597-2.518-1.267-.803-1.597 2.518 1.267.803Zm1.697-2.766c.247-1.176.929-2.482 1.877-3.486.952-1.008 2.089-1.63 3.225-1.63v-1.5c-1.69 0-3.194.912-4.316 2.1-1.124 1.192-1.947 2.743-2.254 4.209l1.468.307Zm5.102-5.117H83.8v-1.5h-1.904v1.5Zm1.265-1.142-2.15 3.501 1.278.785 2.15-3.501-1.278-.785Zm-1.51 3.144h-4.055v1.5h4.054v-1.5Zm-4.663.31c-.901 1.248-1.186 2.39-1.186 3.695h1.5c0-1.028.206-1.853.902-2.816l-1.216-.878Zm-1.186 3.695c0 .715.162 1.375.528 1.951.365.574.9 1.013 1.564 1.34 1.298.64 3.179.9 5.6.9v-1.5c-2.372 0-3.962-.264-4.936-.745-.473-.233-.775-.504-.963-.8-.186-.293-.293-.662-.293-1.146h-1.5Zm7.691 4.19h.676v-1.5h-.676v1.5Zm-.035-.512a.46.46 0 0 1-.019-.242.236.236 0 0 1 .018-.051l-.002.002a.061.061 0 0 1-.005.005c-.004.004 0 0 .015-.008l.67 1.342c.269-.134.476-.35.608-.57.114-.19.27-.554.137-.953l-1.422.475Zm.342-.373h-.675v1.5h.675v-1.5Zm2.096-4.165-.628-.41-.003.004.63.406Zm6.573-10.074.628.41.226-.348-.173-.376-.681.314Zm-.369-.799.681-.314-.201-.436h-.48v.75Zm-3.194 0-.592-.46-.942 1.21h1.534v-.75Zm.43-.552v-.75h-.367l-.225.29.592.46Zm3.993 0v.75h.409l.221-.344-.63-.406Zm3.44-5.345v-.75h-.41l-.221.344.63.406Zm4.545-1.72v-.75h-.36l-.225.282.585.468Zm.738 0 .633.402.731-1.152h-1.364v.75Zm-4.485 7.065-.633-.402-.731 1.152h1.364v-.75Zm6.88 0 .592.46.942-1.21h-1.534v.75Zm-.43.552v.75h.367l.225-.29-.592-.46Zm-6.818 0v-.75h-.412l-.221.348.633.402ZM87.43 35.944l-.632-.403-.002.003.634.4Zm6.942 2.273.628.41.001-.002-.63-.408Zm1.474-2.273-.335-.671-.183.091-.111.172.63.408Zm.614 0 .627.412.336-.51-.432-.433-.53.53Zm-1.535 2.334-.627-.412.627.412ZM84.728 46.68c-.769 0-1.364-.225-1.783-.709-.436-.502-.785-1.401-.785-2.964h-1.5c0 1.755.389 3.067 1.151 3.947.779.898 1.842 1.226 2.917 1.226v-1.5Zm-2.568-3.673c0-3.938 1.48-6.662 4.365-11.143l-1.26-.812c-2.89 4.488-4.605 7.54-4.605 11.955h1.5Zm4.363-11.139 6.573-10.074-1.257-.82-6.572 10.075 1.256.82Zm6.626-10.798-.369-.799-1.362.629.369.798 1.362-.628Zm-1.05-1.235h-3.194v1.5h3.194v-1.5Zm-2.602 1.21.43-.552-1.184-.92-.43.552 1.184.92Zm-.162-.262h3.993v-1.5h-3.993v1.5Zm4.623-.344 3.44-5.345-1.261-.812-3.44 5.345 1.261.812Zm2.81-5c2.2 0 3.946-.521 5.131-2.002l-1.171-.937c-.781.976-1.983 1.438-3.96 1.438v1.5Zm4.545-1.72h.738v-1.5h-.738v1.5Zm.104-1.153-4.484 7.065 1.266.804 4.485-7.065-1.267-.804Zm-3.85 8.217h6.879v-1.5h-6.88v1.5Zm6.287-1.21-.43.552 1.184.92.43-.552-1.184-.92Zm.162.262h-6.818v1.5h6.818v-1.5Zm-7.451.348L86.798 35.54l1.265.805 9.767-15.357-1.265-.805Zm-9.77 15.36c-1.553 2.468-2.726 4.267-3.501 5.684-.776 1.419-1.22 2.57-1.22 3.746h1.5c0-.79.292-1.666 1.036-3.026.746-1.364 1.876-3.096 3.455-5.605l-1.27-.799Zm-4.722 9.43c0 .751.179 1.466.717 1.979.529.505 1.264.675 2.06.675v-1.5c-.616 0-.895-.136-1.025-.261-.123-.117-.252-.355-.252-.893h-1.5Zm2.777 2.654c1.883 0 3.728-1.252 5.381-2.89 1.684-1.667 3.315-3.883 4.769-6.111l-1.256-.82c-1.433 2.195-2.996 4.309-4.569 5.866-1.602 1.588-3.074 2.455-4.325 2.455v1.5Zm10.151-9.003 1.474-2.273-1.258-.816-1.474 2.273 1.258.816Zm1.18-2.01c.04-.02.048-.013.018-.013a.4.4 0 0 1-.269-.128l1.06-1.06a1.108 1.108 0 0 0-.79-.312c-.245 0-.482.067-.69.17l.672 1.343Zm-.347-1.083-1.536 2.334 1.253.824 1.536-2.334-1.253-.824Zm-1.536 2.334c-1.47 2.235-3.063 4.47-4.727 6.141-1.684 1.692-3.311 2.674-4.843 2.674v1.5c2.153 0 4.15-1.352 5.906-3.116 1.777-1.784 3.439-4.126 4.918-6.375l-1.254-.824Zm1.184-2.107v-.75h-.4l-.224.334.624.416Zm2.642 0 .67.336.543-1.086h-1.213v.75Zm-.246.492.45.6.142-.106.079-.159-.67-.335Zm-3.931 3.44-.546-.515-.076.08-.05.1.672.335Zm8.477-3.194-.744-.095v.002l.744.093Zm2.15-8.478.619.424.001-.001-.62-.423Zm7.126-2.273.655.365.45-.81-.885-.271-.22.716Zm-1.229 2.212-.443.605.686.503.413-.744-.656-.364Zm-5.221 2.58.749-.039-.001-.01-.748.049Zm.307 5.959.75-.017-.001-.011v-.011l-.749.039ZM98.062 46.68c-1.456 0-2.578-.419-3.33-1.114-.743-.688-1.202-1.72-1.202-3.112h-1.5c0 1.74.585 3.197 1.684 4.213 1.091 1.01 2.61 1.513 4.349 1.513v-1.5Zm-4.532-4.226c0-2.2 1.213-4.235 2.576-6.28l-1.248-.832c-1.34 2.01-2.828 4.399-2.828 7.112h1.5Zm1.953-5.946h2.64v-1.5h-2.64v1.5Zm1.97-1.085-.246.491 1.342.671.246-.491-1.342-.67Zm-.025.227c-1.748 1.31-2.948 2.383-4.026 3.525l1.09 1.03c1.01-1.07 2.144-2.086 3.836-3.355l-.9-1.2Zm-4.152 3.705c-.492.983-.694 2.085-.694 3.1h1.5c0-.83.167-1.693.536-2.43l-1.342-.67Zm-.694 3.1c0 1.227.323 2.428 1.023 3.342.716.936 1.795 1.523 3.167 1.523v-1.5c-.9 0-1.54-.365-1.976-.934-.453-.591-.714-1.448-.714-2.432h-1.5Zm4.19 4.865c2.282 0 3.737-1.625 4.659-3.631.926-2.013 1.428-4.627 1.737-7.1l-1.488-.186c-.305 2.44-.786 4.864-1.611 6.66-.83 1.802-1.893 2.757-3.297 2.757v1.5Zm6.396-10.73c.189-1.481.321-2.961.606-4.394.283-1.421.702-2.706 1.419-3.754l-1.238-.847c-.88 1.287-1.352 2.797-1.652 4.308-.299 1.501-.444 3.092-.623 4.498l1.488.19Zm2.026-8.15c.822-1.205 2.088-2.252 4.171-2.252v-1.5c-2.707 0-4.39 1.41-5.411 2.908l1.24.845Zm4.171-2.252c.523 0 1.42.06 2.114.274l.441-1.433c-.902-.278-1.971-.34-2.555-.34v1.5Zm1.679-.807-1.228 2.212 1.311.728 1.228-2.211-1.311-.729Zm-.129 1.971c-.423-.31-.958-.738-1.518-1.064-.578-.337-1.263-.617-2.059-.617v1.5c.433 0 .854.15 1.305.413.468.273.886.612 1.385.978l.887-1.21Zm-3.577-1.68c-.49 0-.96.103-1.379.348-.42.245-.742.608-.975 1.052-.449.86-.578 2.058-.483 3.514l1.497-.098c-.089-1.37.059-2.23.316-2.721.12-.231.259-.368.403-.453.146-.085.344-.143.621-.143v-1.5Zm-2.837 4.904.307 5.958 1.498-.077-.307-5.959-1.498.078Zm.306 5.936c.09 4.069-.826 6.598-2.096 8.1-1.259 1.489-2.95 2.068-4.648 2.068v1.5c2.049 0 4.196-.71 5.794-2.6 1.586-1.877 2.544-4.815 2.45-9.1l-1.5.032Z" mask="url(#h)"/>
    </g>
  </g>
  <defs>
    <clipPath id="a">
      <path fill="#fff" d="M0 0h115v57H0z"/>
    </clipPath>
  </defs>
</svg>
