<svg xmlns="http://www.w3.org/2000/svg" viewBox="0 0 214 88" preserveAspectRatio="xMidYMid meet" style="width: 100%; height: auto;">
  <g clip-path="url(#a)">
    <g clip-path="url(#b)">
      <path stroke="#FB4E2B" stroke-linecap="round" stroke-linejoin="round" stroke-miterlimit="4.3" d="M139.033 34.438c-.733.485-1.467.97-2.269 1.883-.803.913-1.673 2.252-1.542 2.738.133.485 1.265.118 2.046-.803.781-.921 1.209-2.393 1.273-2.343.064.05-.236 1.62.257 2.13.493.51 1.777-.042 3.125-.769s2.759-1.628 3.212-1.806c.453-.177-.05.368.019.747.068.38.71.592 1.808.23s2.652-1.298 4.834-2.823c2.181-1.525 4.985-3.634 5.801-4.965.816-1.33-.357-1.881-1.403-1.868-1.046.012-1.963.589-2.853 1.403-.89.815-1.752 1.865-1.609 2.822.144.957 1.295 1.821 3.173 1.783 1.877-.038 4.48-.978 7.016-1.85 2.535-.872 4.999-1.674 5.753-1.854.755-.18-.204.265-.854.93-.649.666-.986 1.552-.601 1.78.386.228 1.494-.202 2.639-.869 1.145-.667 2.327-1.57 2.714-2.38.387-.81-.022-1.526-.04-1.427-.018.099.353 1.014 1.266 1.316.912.302 2.365-.01 4.321-.615 1.954-.605 4.407-1.504 7.292-2.52s6.2-2.15 7.997-3.352c1.797-1.201 2.075-2.47 1.626-3.189-.449-.719-1.625-.887-2.977-.418-1.353.47-2.881 1.579-2.799 2.711.082 1.132 1.775 2.288 4.331 2.788 2.555.5 5.972.344 9.315.15 3.343-.196 6.612-.43 7.991-.4 1.38.03.87.324.314.65-.556.325-1.155.681-1.261.819-.106.137.281.055.669-.027m-96.33 12.074c.274.48.547.96.215 2.05-.333 1.088-1.269 2.782-2.123 4.45-.853 1.67-1.622 3.311-1.16 3.556.462.245 2.154-.907 3.809-2.207 1.655-1.3 3.271-2.746 3.688-2.877.416-.132-.367 1.053-.381 1.9-.013.849.744 1.359 2.2.774 1.456-.585 3.613-2.265 5.853-4.366 2.24-2.102 4.565-4.624 6.891-7.148M41.592 60.557c.434.733.869 1.465 1.778 1.372.909-.093 2.293-1.012 3.66-1.686 1.368-.674 2.719-1.102 3.471-1.036.753.066.906.626.77 1.509-.136.882-.561 2.086-.048 2.182.514.096 1.966-.915 3.395-2.115 1.43-1.2 2.834-2.586 3.31-2.52.474.067.019 1.586 1.176 1.887 1.157.3 3.925-.62 6.464-1.897 2.54-1.277 4.85-2.912 5.033-2.885.182.026-1.764 1.712-2.033 2.453-.27.742 1.14.536 2.753-.682 1.614-1.218 3.433-3.448 3.603-5.112.17-1.665-1.308-2.765-2.71-2.098-1.403.667-2.729 3.1-1.41 4.011 1.32.91 5.285.296 8.12-.448 2.837-.745 4.543-1.619 4.666-.935.122.684-1.34 2.925-1.444 5.743-.105 2.818 1.148 6.209-.324 7.79-1.472 1.58-5.669 1.349-2.706-2.015 2.964-3.363 13.085-9.855 23.208-16.349m-83.42 19.115c-1.291-.351-2.583-.702-2.404-.725.18-.024 1.828.28 5.907-.526s10.586-2.72 17.093-4.636m-14.958-3.86c.77-.734 1.54-1.467 2.18-1.987.64-.52 1.147-.825 1.315-.647.168.178-.006.837.212 2.429.218 1.592.827 4.114 1.796 6.548.97 2.434 2.297 4.775 3.06 6.086.763 1.311.959 1.588.953 1.756-.005.168-.213.228-.572.354-.358.126-.864.316-1.456.316-.592-.001-1.265-.194-1.939-.386m-14.9-.608c-3.36 5.603-6.723 11.206-7.508 12.695-.785 1.489 1.007-1.136 3.307-4.137 2.3-3.001 5.11-6.378 7.954-10.738 2.844-4.361 5.722-9.703 7.371-12.728 1.649-3.025 2.067-3.733 2.547-4.213s1.02-.734 1.274-1.235c.254-.5.223-1.249.191-1.996" stroke-dasharray="411.6579284667969" stroke-dashoffset="411.6579284667969" style="transition: stroke-dashoffset 10000ms ease-out; stroke-dashoffset: 0px;"></path>
    </g>
  </g>
  <defs>
    <clipPath id="a">
      <path fill="#fff" d="M0 0h214v88H0z" stroke-dasharray="604" stroke-dashoffset="604" style="transition: stroke-dashoffset 10000ms ease-out; stroke-dashoffset: 0px;"></path>
    </clipPath>
    <clipPath id="b">
      <path fill="#fff" d="M0 57 205.276.16l8.54 30.84L8.538 87.84z" stroke-dasharray="490.002685546875" stroke-dashoffset="490.002685546875" style="transition: stroke-dashoffset 10000ms ease-out; stroke-dashoffset: 0px;"></path>
    </clipPath>
  </defs>
</svg>